<?xml version="1.0" encoding="UTF-8"?>
<svg xmlns="http://www.w3.org/2000/svg" xml:space="preserve" width="1200px" height="1672px" version="1.1" shape-rendering="geometricPrecision" text-rendering="geometricPrecision" image-rendering="optimizeQuality" fill-rule="evenodd" clip-rule="evenodd" viewBox="0 0 1200 1671.64" xmlns:xlink="http://www.w3.org/1999/xlink">
 <g id="Layer_x0020_1">
  <g id="_2301854536720">
   <polygon fill="white" points="0,0 0,1671.64 1200,1671.64 1200,0 "/>
   <line fill="none" stroke="#7F7F7F" stroke-width="5.97" stroke-linejoin="round" stroke-miterlimit="22.9256" x1="588.06" y1="1595.52" x2="588.06" y2= "158.21" />
   <path fill="none" stroke="#7F7F7F" stroke-width="5.97" stroke-linejoin="round" stroke-miterlimit="22.9256" d="M576.12 1595.52l11.94 0m-11.94 -40.3l11.94 0m-11.94 -38.8l11.94 0m-11.94 -40.3l11.94 0m-11.94 -40.3l11.94 0m-11.94 -40.3l11.94 0m-11.94 -38.8l11.94 0m-11.94 -40.3l11.94 0m-11.94 -40.3l11.94 0m-11.94 -40.3l11.94 0m-11.94 -38.81l11.94 0m-11.94 -40.29l11.94 0m-11.94 -40.3l11.94 0m-11.94 -40.3l11.94 0m-11.94 -38.81l11.94 0m-11.94 -40.3l11.94 0m-11.94 -40.29l11.94 0m-11.94 -40.3l11.94 0m-11.94 -40.3l11.94 0m-11.94 -38.81l11.94 0m-11.94 -40.3l11.94 0m-11.94 -40.29l11.94 0m-11.94 -40.3l11.94 0m-11.94 -38.81l11.94 0m-11.94 -40.3l11.94 0m-11.94 -40.3l11.94 0m-11.94 -40.29l11.94 0m-11.94 -38.81l11.94 0m-11.94 -40.3l11.94 0m-11.94 -40.3l11.94 0m-11.94 -40.29l11.94 0m-11.94 -38.81l11.94 0m-11.94 -40.3l11.94 0m-11.94 -40.3l11.94 0m-11.94 -40.3l11.94 0m-11.94 -38.8l11.94 0m-11.94 -40.3l11.94 0m-16.42 1437.31l31.34 0m-31.34 -479.1l31.34 0m-31.34 -479.11l31.34 0m-31.34 -479.1l31.34 0"/>
   <path fill="#4F81BD" d="M329.1 1594.03l4.48 0 0 3.73 -4.48 0 0 -3.73zm255.23 3.73l-4.48 0 0 -3.73 4.48 0 0 3.73zm-8.96 0l-4.47 0 0 -3.73 4.47 0 0 3.73zm-8.95 0l-4.48 0 0 -3.73 4.48 0 0 3.73zm-8.96 0l-4.47 0 0 -3.73 4.47 0 0 3.73zm-8.95 0l-4.48 0 0 -3.73 4.48 0 0 3.73zm-8.96 0l-4.48 0 0 -3.73 4.48 0 0 3.73zm-8.95 0l-4.48 0 0 -3.73 4.48 0 0 3.73zm-8.96 0l-4.48 0 0 -3.73 4.48 0 0 3.73zm-8.95 0l-4.48 0 0 -3.73 4.48 0 0 3.73zm-8.96 0l-4.48 0 0 -3.73 4.48 0 0 3.73zm-8.95 0l-4.48 0 0 -3.73 4.48 0 0 3.73zm-8.96 0l-4.48 0 0 -3.73 4.48 0 0 3.73zm-8.95 0l-4.48 0 0 -3.73 4.48 0 0 3.73zm-8.96 0l-4.48 0 0 -3.73 4.48 0 0 3.73zm-8.95 0l-4.48 0 0 -3.73 4.48 0 0 3.73zm-8.96 0l-4.48 0 0 -3.73 4.48 0 0 3.73zm-8.95 0l-4.48 0 0 -3.73 4.48 0 0 3.73zm-8.96 0l-4.48 0 0 -3.73 4.48 0 0 3.73zm-8.95 0l-4.48 0 0 -3.73 4.48 0 0 3.73zm-8.96 0l-4.48 0 0 -3.73 4.48 0 0 3.73zm-8.96 0l-4.47 0 0 -3.73 4.47 0 0 3.73zm-8.95 0l-4.48 0 0 -3.73 4.48 0 0 3.73zm-8.96 0l-4.47 0 0 -3.73 4.47 0 0 3.73zm-8.95 0l-4.48 0 0 -3.73 4.48 0 0 3.73zm-8.96 0l-4.47 0 0 -3.73 4.47 0 0 3.73zm-8.95 0l-4.48 0 0 -3.73 4.48 0 0 3.73zm-8.96 0l-4.47 0 0 -3.73 4.47 0 0 3.73zm-8.95 0l-4.48 0 0 -3.73 4.48 0 0 3.73z"/>
   <path fill="none" stroke="#4F81BD" stroke-width="0.71" stroke-linejoin="round" stroke-miterlimit="22.9256" d="M329.1 1594.03l4.48 0 0 3.73m-4.48 0l0 -3.73m8.96 0l4.48 0 0 3.73m-4.48 0l0 -3.73m8.96 0l4.47 0 0 3.73m-4.47 0l0 -3.73m8.95 0l4.48 0 0 3.73m-4.48 0l0 -3.73m8.96 0l4.47 0 0 3.73m-4.47 0l0 -3.73m8.95 0l4.48 0 0 3.73m-4.48 0l0 -3.73m8.96 0l4.47 0 0 3.73m-4.47 0l0 -3.73m8.95 0l4.48 0 0 3.73m-4.48 0l0 -3.73m8.96 0l4.47 0 0 3.73m-4.47 0l0 -3.73m8.95 0l4.48 0 0 3.73m-4.48 0l0 -3.73m8.96 0l4.48 0 0 3.73m-4.48 0l0 -3.73m8.95 0l4.48 0 0 3.73m-4.48 0l0 -3.73m8.96 0l4.48 0 0 3.73m-4.48 0l0 -3.73m8.95 0l4.48 0 0 3.73m-4.48 0l0 -3.73m8.96 0l4.48 0 0 3.73m-4.48 0l0 -3.73m8.95 0l4.48 0 0 3.73m-4.48 0l0 -3.73m8.96 0l4.48 0 0 3.73m-4.48 0l0 -3.73m8.95 0l4.48 0 0 3.73m-4.48 0l0 -3.73m8.96 0l4.48 0 0 3.73m-4.48 0l0 -3.73m8.95 0l4.48 0 0 3.73m-4.48 0l0 -3.73m8.96 0l4.48 0 0 3.73m-4.48 0l0 -3.73m8.95 0l4.48 0 0 3.73m-4.48 0l0 -3.73m8.96 0l4.48 0 0 3.73m-4.48 0l0 -3.73m8.95 0l4.48 0 0 3.73m-4.48 0l0 -3.73m8.96 0l4.48 0 0 3.73m-4.48 0l0 -3.73m8.96 0l4.47 0 0 3.73m-4.47 0l0 -3.73m8.95 0l4.48 0 0 3.73m-4.48 0l0 -3.73m8.96 0l4.47 0 0 3.73m-4.47 0l0 -3.73m8.95 0l4.48 0 0 3.73m-4.48 0l0 -3.73"/>
   <path fill="#4F81BD" stroke="#4F81BD" stroke-width="0.71" stroke-linejoin="round" stroke-miterlimit="22.9256" d="M950 1038.8l-4.48 0 0 -4.47 4.48 0 0 4.47zm-8.96 0l-4.47 0 0 -4.47 4.47 0 0 4.47zm-8.95 0l-4.48 0 0 -4.47 4.48 0 0 4.47zm-8.96 0l-4.47 0 0 -4.47 4.47 0 0 4.47zm-8.95 0l-4.48 0 0 -4.47 4.48 0 0 4.47zm-8.96 0l-4.47 0 0 -4.47 4.47 0 0 4.47zm-8.95 0l-4.48 0 0 -4.47 4.48 0 0 4.47zm-8.96 0l-4.47 0 0 -4.47 4.47 0 0 4.47zm-8.95 0l-4.48 0 0 -4.47 4.48 0 0 4.47zm-8.96 0l-4.47 0 0 -4.47 4.47 0 0 4.47zm-8.95 0l-4.48 0 0 -4.47 4.48 0 0 4.47zm-8.96 0l-4.47 0 0 -4.47 4.47 0 0 4.47zm-8.95 0l-4.48 0 0 -4.47 4.48 0 0 4.47zm-8.96 0l-4.48 0 0 -4.47 4.48 0 0 4.47zm-8.95 0l-4.48 0 0 -4.47 4.48 0 0 4.47zm-8.96 0l-4.48 0 0 -4.47 4.48 0 0 4.47zm-8.95 0l-4.48 0 0 -4.47 4.48 0 0 4.47zm-8.96 0l-4.48 0 0 -4.47 4.48 0 0 4.47zm-8.95 0l-4.48 0 0 -4.47 4.48 0 0 4.47zm-8.96 0l-4.48 0 0 -4.47 4.48 0 0 4.47zm-8.95 0l-4.48 0 0 -4.47 4.48 0 0 4.47zm-8.96 0l-4.48 0 0 -4.47 4.48 0 0 4.47zm-8.96 0l-4.47 0 0 -4.47 4.47 0 0 4.47zm-8.95 0l-4.48 0 0 -4.47 4.48 0 0 4.47zm-8.96 0l-4.47 0 0 -4.47 4.47 0 0 4.47zm-8.95 0l-4.48 0 0 -4.47 4.48 0 0 4.47zm-8.96 0l-4.47 0 0 -4.47 4.47 0 0 4.47zm-8.95 0l-4.48 0 0 -4.47 4.48 0 0 4.47zm-8.96 0l-4.47 0 0 -4.47 4.47 0 0 4.47zm-8.95 0l-4.48 0 0 -4.47 4.48 0 0 4.47zm-8.96 0l-4.47 0 0 -4.47 4.47 0 0 4.47zm-8.95 0l-4.48 0 0 -4.47 4.48 0 0 4.47zm-8.96 0l-4.47 0 0 -4.47 4.47 0 0 4.47zm-8.95 0l-4.48 0 0 -4.47 4.48 0 0 4.47zm-8.96 0l-4.48 0 0 -4.47 4.48 0 0 4.47zm-8.95 0l-4.48 0 0 -4.47 4.48 0 0 4.47zm-8.96 0l-4.48 0 0 -4.47 4.48 0 0 4.47zm-8.95 0l-4.48 0 0 -4.47 4.48 0 0 4.47zm-8.96 0l-4.48 0 0 -4.47 4.48 0 0 4.47zm-8.95 0l-4.48 0 0 -4.47 4.48 0 0 4.47zm-8.96 0l-4.48 0 0 -4.47 4.48 0 0 4.47z"/>
   <path fill="#4F81BD" stroke="#4F81BD" stroke-width="0.71" stroke-linejoin="round" stroke-miterlimit="22.9256" d="M173.88 994.03l4.48 0 0 4.48 -4.48 0 0 -4.48zm8.96 0l4.47 0 0 4.48 -4.47 0 0 -4.48zm8.95 0l4.48 0 0 4.48 -4.48 0 0 -4.48zm8.96 0l4.47 0 0 4.48 -4.47 0 0 -4.48zm8.95 0l4.48 0 0 4.48 -4.48 0 0 -4.48zm8.96 0l4.47 0 0 4.48 -4.47 0 0 -4.48zm8.95 0l4.48 0 0 4.48 -4.48 0 0 -4.48zm8.96 0l4.48 0 0 4.48 -4.48 0 0 -4.48zm8.95 0l4.48 0 0 4.48 -4.48 0 0 -4.48zm8.96 0l4.48 0 0 4.48 -4.48 0 0 -4.48zm8.95 0l4.48 0 0 4.48 -4.48 0 0 -4.48zm8.96 0l4.48 0 0 4.48 -4.48 0 0 -4.48zm8.95 0l4.48 0 0 4.48 -4.48 0 0 -4.48zm8.96 0l4.48 0 0 4.48 -4.48 0 0 -4.48zm8.95 0l4.48 0 0 4.48 -4.48 0 0 -4.48zm8.96 0l4.48 0 0 4.48 -4.48 0 0 -4.48zm8.95 0l4.48 0 0 4.48 -4.48 0 0 -4.48zm8.96 0l4.48 0 0 4.48 -4.48 0 0 -4.48zm8.96 0l4.47 0 0 4.48 -4.47 0 0 -4.48zm8.95 0l4.48 0 0 4.48 -4.48 0 0 -4.48zm8.96 0l4.47 0 0 4.48 -4.47 0 0 -4.48zm8.95 0l4.48 0 0 4.48 -4.48 0 0 -4.48zm8.96 0l4.47 0 0 4.48 -4.47 0 0 -4.48zm8.95 0l4.48 0 0 4.48 -4.48 0 0 -4.48zm8.96 0l4.47 0 0 4.48 -4.47 0 0 -4.48zm8.95 0l4.48 0 0 4.48 -4.48 0 0 -4.48zm8.96 0l4.47 0 0 4.48 -4.47 0 0 -4.48zm8.95 0l4.48 0 0 4.48 -4.48 0 0 -4.48zm8.96 0l4.47 0 0 4.48 -4.47 0 0 -4.48zm8.95 0l4.48 0 0 4.48 -4.48 0 0 -4.48zm8.96 0l4.48 0 0 4.48 -4.48 0 0 -4.48zm8.95 0l4.48 0 0 4.48 -4.48 0 0 -4.48zm8.96 0l4.48 0 0 4.48 -4.48 0 0 -4.48zm8.95 0l4.48 0 0 4.48 -4.48 0 0 -4.48zm8.96 0l4.48 0 0 4.48 -4.48 0 0 -4.48zm8.95 0l4.48 0 0 4.48 -4.48 0 0 -4.48zm8.96 0l4.48 0 0 4.48 -4.48 0 0 -4.48zm8.95 0l4.48 0 0 4.48 -4.48 0 0 -4.48zm8.96 0l4.48 0 0 4.48 -4.48 0 0 -4.48zm8.96 0l4.47 0 0 4.48 -4.47 0 0 -4.48zm8.95 0l4.48 0 0 4.48 -4.48 0 0 -4.48zm8.96 0l4.47 0 0 4.48 -4.47 0 0 -4.48zm8.95 0l4.48 0 0 4.48 -4.48 0 0 -4.48zm8.96 0l4.47 0 0 4.48 -4.47 0 0 -4.48zm8.95 0l4.48 0 0 4.48 -4.48 0 0 -4.48zm8.96 0l4.47 0 0 4.48 -4.47 0 0 -4.48zm8.95 0l1.49 0 0 4.48 -1.49 0 0 -4.48z"/>
   <path fill="#4F81BD" stroke="#4F81BD" stroke-width="0.71" stroke-linejoin="round" stroke-miterlimit="22.9256" d="M847.02 959.7l-4.48 0 0 -4.48 4.48 0 0 4.48zm-8.96 0l-4.48 0 0 -4.48 4.48 0 0 4.48zm-8.96 0l-4.47 0 0 -4.48 4.47 0 0 4.48zm-8.95 0l-4.48 0 0 -4.48 4.48 0 0 4.48zm-8.96 0l-4.47 0 0 -4.48 4.47 0 0 4.48zm-8.95 0l-4.48 0 0 -4.48 4.48 0 0 4.48zm-8.96 0l-4.47 0 0 -4.48 4.47 0 0 4.48zm-8.95 0l-4.48 0 0 -4.48 4.48 0 0 4.48zm-8.96 0l-4.47 0 0 -4.48 4.47 0 0 4.48zm-8.95 0l-4.48 0 0 -4.48 4.48 0 0 4.48zm-8.96 0l-4.48 0 0 -4.48 4.48 0 0 4.48zm-8.95 0l-4.48 0 0 -4.48 4.48 0 0 4.48zm-8.96 0l-4.48 0 0 -4.48 4.48 0 0 4.48zm-8.95 0l-4.48 0 0 -4.48 4.48 0 0 4.48zm-8.96 0l-4.48 0 0 -4.48 4.48 0 0 4.48zm-8.95 0l-4.48 0 0 -4.48 4.48 0 0 4.48zm-8.96 0l-4.48 0 0 -4.48 4.48 0 0 4.48zm-8.95 0l-4.48 0 0 -4.48 4.48 0 0 4.48zm-8.96 0l-4.48 0 0 -4.48 4.48 0 0 4.48zm-8.95 0l-4.48 0 0 -4.48 4.48 0 0 4.48zm-8.96 0l-4.48 0 0 -4.48 4.48 0 0 4.48zm-8.95 0l-4.48 0 0 -4.48 4.48 0 0 4.48zm-8.96 0l-4.48 0 0 -4.48 4.48 0 0 4.48zm-8.96 0l-4.47 0 0 -4.48 4.47 0 0 4.48zm-8.95 0l-4.48 0 0 -4.48 4.48 0 0 4.48zm-8.96 0l-4.47 0 0 -4.48 4.47 0 0 4.48zm-8.95 0l-4.48 0 0 -4.48 4.48 0 0 4.48zm-8.96 0l-4.47 0 0 -4.48 4.47 0 0 4.48zm-8.95 0l-4.48 0 0 -4.48 4.48 0 0 4.48z"/>
   <path fill="#4F81BD" stroke="#4F81BD" stroke-width="0.71" stroke-linejoin="round" stroke-miterlimit="22.9256" d="M276.87 914.92l4.47 0 0 4.48 -4.47 0 0 -4.48zm8.95 0l4.48 0 0 4.48 -4.48 0 0 -4.48zm8.96 0l4.47 0 0 4.48 -4.47 0 0 -4.48zm8.95 0l4.48 0 0 4.48 -4.48 0 0 -4.48zm8.96 0l4.47 0 0 4.48 -4.47 0 0 -4.48zm8.95 0l4.48 0 0 4.48 -4.48 0 0 -4.48zm8.96 0l4.48 0 0 4.48 -4.48 0 0 -4.48zm8.95 0l4.48 0 0 4.48 -4.48 0 0 -4.48zm8.96 0l4.48 0 0 4.48 -4.48 0 0 -4.48zm8.95 0l4.48 0 0 4.48 -4.48 0 0 -4.48zm8.96 0l4.48 0 0 4.48 -4.48 0 0 -4.48zm8.95 0l4.48 0 0 4.48 -4.48 0 0 -4.48zm8.96 0l4.48 0 0 4.48 -4.48 0 0 -4.48zm8.95 0l4.48 0 0 4.48 -4.48 0 0 -4.48zm8.96 0l4.48 0 0 4.48 -4.48 0 0 -4.48zm8.95 0l4.48 0 0 4.48 -4.48 0 0 -4.48zm8.96 0l4.48 0 0 4.48 -4.48 0 0 -4.48zm8.95 0l4.48 0 0 4.48 -4.48 0 0 -4.48zm8.96 0l4.48 0 0 4.48 -4.48 0 0 -4.48zm8.96 0l4.47 0 0 4.48 -4.47 0 0 -4.48zm8.95 0l4.48 0 0 4.48 -4.48 0 0 -4.48zm8.96 0l4.47 0 0 4.48 -4.47 0 0 -4.48zm8.95 0l4.48 0 0 4.48 -4.48 0 0 -4.48zm8.96 0l4.47 0 0 4.48 -4.47 0 0 -4.48zm8.95 0l4.48 0 0 4.48 -4.48 0 0 -4.48zm8.96 0l4.47 0 0 4.48 -4.47 0 0 -4.48zm8.95 0l4.48 0 0 4.48 -4.48 0 0 -4.48zm8.96 0l4.48 0 0 4.48 -4.48 0 0 -4.48zm8.95 0l4.48 0 0 4.48 -4.48 0 0 -4.48zm8.96 0l4.48 0 0 4.48 -4.48 0 0 -4.48zm8.95 0l4.48 0 0 4.48 -4.48 0 0 -4.48zm8.96 0l4.48 0 0 4.48 -4.48 0 0 -4.48zm8.95 0l4.48 0 0 4.48 -4.48 0 0 -4.48zm8.96 0l4.48 0 0 4.48 -4.48 0 0 -4.48zm8.95 0l4.48 0 0 4.48 -4.48 0 0 -4.48z"/>
   <path fill="#4F81BD" stroke="#4F81BD" stroke-width="0.71" stroke-linejoin="round" stroke-miterlimit="22.9256" d="M199.25 314.93l4.48 0 0 4.47 -4.48 0 0 -4.47zm8.96 0l4.48 0 0 4.47 -4.48 0 0 -4.47zm8.96 0l4.47 0 0 4.47 -4.47 0 0 -4.47zm8.95 0l4.48 0 0 4.47 -4.48 0 0 -4.47zm8.96 0l4.47 0 0 4.47 -4.47 0 0 -4.47zm8.95 0l4.48 0 0 4.47 -4.48 0 0 -4.47zm8.96 0l4.47 0 0 4.47 -4.47 0 0 -4.47zm8.95 0l4.48 0 0 4.47 -4.48 0 0 -4.47zm8.96 0l4.47 0 0 4.47 -4.47 0 0 -4.47zm8.95 0l4.48 0 0 4.47 -4.48 0 0 -4.47zm8.96 0l4.47 0 0 4.47 -4.47 0 0 -4.47zm8.95 0l4.48 0 0 4.47 -4.48 0 0 -4.47zm8.96 0l4.47 0 0 4.47 -4.47 0 0 -4.47zm8.95 0l4.48 0 0 4.47 -4.48 0 0 -4.47zm8.96 0l4.47 0 0 4.47 -4.47 0 0 -4.47zm8.95 0l4.48 0 0 4.47 -4.48 0 0 -4.47zm8.96 0l4.48 0 0 4.47 -4.48 0 0 -4.47zm8.95 0l4.48 0 0 4.47 -4.48 0 0 -4.47zm8.96 0l4.48 0 0 4.47 -4.48 0 0 -4.47zm8.95 0l4.48 0 0 4.47 -4.48 0 0 -4.47zm8.96 0l4.48 0 0 4.47 -4.48 0 0 -4.47zm8.95 0l4.48 0 0 4.47 -4.48 0 0 -4.47zm8.96 0l4.48 0 0 4.47 -4.48 0 0 -4.47zm8.95 0l4.48 0 0 4.47 -4.48 0 0 -4.47zm8.96 0l4.48 0 0 4.47 -4.48 0 0 -4.47zm8.96 0l4.47 0 0 4.47 -4.47 0 0 -4.47zm8.95 0l4.48 0 0 4.47 -4.48 0 0 -4.47zm8.96 0l4.47 0 0 4.47 -4.47 0 0 -4.47zm8.95 0l4.48 0 0 4.47 -4.48 0 0 -4.47zm8.96 0l4.47 0 0 4.47 -4.47 0 0 -4.47zm8.95 0l4.48 0 0 4.47 -4.48 0 0 -4.47zm8.96 0l4.47 0 0 4.47 -4.47 0 0 -4.47zm8.95 0l4.48 0 0 4.47 -4.48 0 0 -4.47zm8.96 0l4.47 0 0 4.47 -4.47 0 0 -4.47zm8.95 0l4.48 0 0 4.47 -4.48 0 0 -4.47zm8.96 0l4.47 0 0 4.47 -4.47 0 0 -4.47zm8.95 0l4.48 0 0 4.47 -4.48 0 0 -4.47zm8.96 0l4.47 0 0 4.47 -4.47 0 0 -4.47zm8.95 0l4.48 0 0 4.47 -4.48 0 0 -4.47zm8.96 0l4.48 0 0 4.47 -4.48 0 0 -4.47zm8.95 0l4.48 0 0 4.47 -4.48 0 0 -4.47zm8.96 0l4.48 0 0 4.47 -4.48 0 0 -4.47zm8.95 0l4.48 0 0 4.47 -4.48 0 0 -4.47zm8.96 0l2.98 0 0 4.47 -2.98 0 0 -4.47z"/>
   <path fill="#4F81BD" stroke="#4F81BD" stroke-width="0.71" stroke-linejoin="round" stroke-miterlimit="22.9256" d="M950 280.6l-4.48 0 0 -4.48 4.48 0 0 4.48zm-8.96 0l-4.47 0 0 -4.48 4.47 0 0 4.48zm-8.95 0l-4.48 0 0 -4.48 4.48 0 0 4.48zm-8.96 0l-4.47 0 0 -4.48 4.47 0 0 4.48zm-8.95 0l-4.48 0 0 -4.48 4.48 0 0 4.48zm-8.96 0l-4.47 0 0 -4.48 4.47 0 0 4.48zm-8.95 0l-4.48 0 0 -4.48 4.48 0 0 4.48zm-8.96 0l-4.47 0 0 -4.48 4.47 0 0 4.48zm-8.95 0l-4.48 0 0 -4.48 4.48 0 0 4.48zm-8.96 0l-4.47 0 0 -4.48 4.47 0 0 4.48zm-8.95 0l-4.48 0 0 -4.48 4.48 0 0 4.48zm-8.96 0l-4.47 0 0 -4.48 4.47 0 0 4.48zm-8.95 0l-4.48 0 0 -4.48 4.48 0 0 4.48zm-8.96 0l-4.48 0 0 -4.48 4.48 0 0 4.48zm-8.95 0l-4.48 0 0 -4.48 4.48 0 0 4.48zm-8.96 0l-4.48 0 0 -4.48 4.48 0 0 4.48zm-8.95 0l-4.48 0 0 -4.48 4.48 0 0 4.48zm-8.96 0l-4.48 0 0 -4.48 4.48 0 0 4.48zm-8.95 0l-4.48 0 0 -4.48 4.48 0 0 4.48zm-8.96 0l-4.48 0 0 -4.48 4.48 0 0 4.48zm-8.95 0l-4.48 0 0 -4.48 4.48 0 0 4.48zm-8.96 0l-4.48 0 0 -4.48 4.48 0 0 4.48zm-8.96 0l-4.47 0 0 -4.48 4.47 0 0 4.48zm-8.95 0l-4.48 0 0 -4.48 4.48 0 0 4.48zm-8.96 0l-4.47 0 0 -4.48 4.47 0 0 4.48zm-8.95 0l-4.48 0 0 -4.48 4.48 0 0 4.48zm-8.96 0l-4.47 0 0 -4.48 4.47 0 0 4.48zm-8.95 0l-4.48 0 0 -4.48 4.48 0 0 4.48zm-8.96 0l-4.47 0 0 -4.48 4.47 0 0 4.48zm-8.95 0l-4.48 0 0 -4.48 4.48 0 0 4.48zm-8.96 0l-4.47 0 0 -4.48 4.47 0 0 4.48zm-8.95 0l-4.48 0 0 -4.48 4.48 0 0 4.48zm-8.96 0l-4.47 0 0 -4.48 4.47 0 0 4.48zm-8.95 0l-4.48 0 0 -4.48 4.48 0 0 4.48zm-8.96 0l-4.48 0 0 -4.48 4.48 0 0 4.48zm-8.95 0l-4.48 0 0 -4.48 4.48 0 0 4.48zm-8.96 0l-4.48 0 0 -4.48 4.48 0 0 4.48zm-8.95 0l-4.48 0 0 -4.48 4.48 0 0 4.48zm-8.96 0l-4.48 0 0 -4.48 4.48 0 0 4.48zm-8.95 0l-4.48 0 0 -4.48 4.48 0 0 4.48zm-8.96 0l-4.48 0 0 -4.48 4.48 0 0 4.48z"/>
   <path fill="#4F81BD" stroke="#4F81BD" stroke-width="0.71" stroke-linejoin="round" stroke-miterlimit="22.9256" d="M484.33 276.12l4.48 0 0 4.48 -4.48 0 0 -4.48zm8.95 0l4.48 0 0 4.48 -4.48 0 0 -4.48zm8.96 0l4.48 0 0 4.48 -4.48 0 0 -4.48zm8.95 0l4.48 0 0 4.48 -4.48 0 0 -4.48zm8.96 0l4.48 0 0 4.48 -4.48 0 0 -4.48zm8.96 0l4.47 0 0 4.48 -4.47 0 0 -4.48zm8.95 0l4.48 0 0 4.48 -4.48 0 0 -4.48zm8.96 0l4.47 0 0 4.48 -4.47 0 0 -4.48zm8.95 0l4.48 0 0 4.48 -4.48 0 0 -4.48zm8.96 0l4.47 0 0 4.48 -4.47 0 0 -4.48zm8.95 0l4.48 0 0 4.48 -4.48 0 0 -4.48zm8.96 0l4.47 0 0 4.48 -4.47 0 0 -4.48z"/>
   <polygon fill="#E46C0A" points="316.79,1582.84 316.79,1608.21 342.16,1608.21 342.16,1582.84 "/>
   <polygon fill="#E46C0A" points="937.69,1024.63 937.69,1050 963.06,1050 963.06,1024.63 "/>
   <polygon fill="#E46C0A" points="161.57,984.33 161.57,1009.7 186.94,1009.7 186.94,984.33 "/>
   <polygon fill="#E46C0A" points="834.7,944.03 834.7,969.4 860.07,969.4 860.07,944.03 "/>
   <polygon fill="#E46C0A" points="264.55,903.73 264.55,929.1 289.93,929.1 289.93,903.73 "/>
   <polygon fill="#E46C0A" points="186.94,305.22 186.94,330.6 212.31,330.6 212.31,305.22 "/>
   <polygon fill="#E46C0A" points="937.69,264.93 937.69,290.3 963.06,290.3 963.06,264.93 "/>
   <polygon fill="#E46C0A" points="472.02,264.93 472.02,290.3 497.39,290.3 497.39,264.93 "/>
   <line fill="none" stroke="#A6A6A6" stroke-width="2.98" stroke-linejoin="round" stroke-miterlimit="22.9256" x1="328.36" y1="1595.52" x2="329.85" y2= "1540.3" />
   <line fill="none" stroke="#A6A6A6" stroke-width="2.98" stroke-linejoin="round" stroke-miterlimit="22.9256" x1="949.25" y1="1037.31" x2="955.22" y2= "1088.06" />
   <line fill="none" stroke="#A6A6A6" stroke-width="2.98" stroke-linejoin="round" stroke-miterlimit="22.9256" x1="173.13" y1="997.01" x2="191.05" y2= "1062.69" />
   <polyline fill="none" stroke="#A6A6A6" stroke-width="2.98" stroke-linejoin="round" stroke-miterlimit="22.9256" points="846.27,956.72 897.02,955.22 907.46,955.22 "/>
   <line fill="none" stroke="#A6A6A6" stroke-width="2.98" stroke-linejoin="round" stroke-miterlimit="22.9256" x1="276.12" y1="916.42" x2="279.1" y2= "856.72" />
   <line fill="none" stroke="#A6A6A6" stroke-width="2.98" stroke-linejoin="round" stroke-miterlimit="22.9256" x1="198.51" y1="317.91" x2="197.01" y2= "370.15" />
   <line fill="none" stroke="#A6A6A6" stroke-width="2.98" stroke-linejoin="round" stroke-miterlimit="22.9256" x1="949.25" y1="277.61" x2="953.73" y2= "344.78" />
   <polyline fill="none" stroke="#A6A6A6" stroke-width="2.98" stroke-linejoin="round" stroke-miterlimit="22.9256" points="483.58,277.61 441.79,197.01 429.85,197.01 "/>
   <g transform="matrix(0.999999 0 0 0.999999 -434.161 571.942)">
    <text x="600" y="835.82"  fill="#376092" font-weight="bold" font-size="32.84px" font-family="Calibri">Формування проєктної</text>
   </g>
   <g transform="matrix(0.999999 0 0 0.999999 -398.341 610.748)">
    <text x="600" y="835.82"  fill="#376092" font-weight="bold" font-size="32.84px" font-family="Calibri">ідеї, підготовка та</text>
   </g>
   <g transform="matrix(0.999999 0 0 0.999999 -404.311 651.046)">
    <text x="600" y="835.82"  fill="#376092" font-weight="bold" font-size="32.84px" font-family="Calibri">подання проєктної</text>
   </g>
   <g transform="matrix(0.999999 0 0 0.999999 -411.773 689.853)">
    <text x="600" y="835.82"  fill="#376092" font-weight="bold" font-size="32.84px" font-family="Calibri">пропозиції на Г2020</text>
   </g>
   <g transform="matrix(0.999999 0 0 0.999999 169.157 287.606)">
    <text x="600" y="835.82"  fill="#376092" font-weight="bold" font-size="32.84px" font-family="Calibri">Подання проєктної заявки</text>
   </g>
   <g transform="matrix(0.999999 0 0 0.999999 175.127 326.412)">
    <text x="600" y="835.82"  fill="#376092" font-weight="bold" font-size="32.84px" font-family="Calibri">на конкурс Громадського</text>
   </g>
   <g transform="matrix(0.999999 0 0 0.999999 200.5 366.71)">
    <text x="600" y="835.82"  fill="#376092" font-weight="bold" font-size="32.84px" font-family="Calibri">Бюджету 2020 року,</text>
   </g>
   <g transform="matrix(0.999999 0 0 0.999999 201.993 405.516)">
    <text x="600" y="835.82"  fill="#376092" font-weight="bold" font-size="32.84px" font-family="Calibri">публікація проєкту на</text>
   </g>
   <g transform="matrix(0.999999 0 0 0.999999 284.082 444.322)">
    <text x="600" y="835.82"  fill="#376092" font-weight="bold" font-size="32.84px" font-family="Calibri">ресурсі ГБ</text>
   </g>
   <g transform="matrix(0.999999 0 0 0.999999 -555.798 260.1)">
    <text x="600" y="835.82"  fill="#376092" font-weight="bold" font-size="32.84px" font-family="Calibri">Експертна перевірка</text>
   </g>
   <g transform="matrix(0.999999 0 0 0.999999 -554.306 298.905)">
    <text x="600" y="835.82"  fill="#376092" font-weight="bold" font-size="32.84px" font-family="Calibri">проєкту комісією ГБ,</text>
   </g>
   <g transform="matrix(0.999999 0 0 0.999999 -546.843 339.204)">
    <text x="600" y="835.82"  fill="#376092" font-weight="bold" font-size="32.84px" font-family="Calibri">доопрацювання до</text>
   </g>
   <g transform="matrix(0.999999 0 0 0.999999 -581.172 378.01)">
    <text x="600" y="835.82"  fill="#376092" font-weight="bold" font-size="32.84px" font-family="Calibri">отримання позитивного</text>
   </g>
   <g transform="matrix(0.999999 0 0 0.999999 -573.709 416.815)">
    <text x="600" y="835.82"  fill="#376092" font-weight="bold" font-size="32.84px" font-family="Calibri">висновку та допуску до</text>
   </g>
   <g transform="matrix(0.999999 0 0 0.999999 -497.59 457.115)">
    <text x="600" y="835.82"  fill="#376092" font-weight="bold" font-size="32.84px" font-family="Calibri">голосування</text>
   </g>
   <g transform="matrix(0.999999 0 0 0.999999 321.904 112.154)">
    <text x="600" y="835.82"  fill="#376092" font-weight="bold" font-size="32.84px" font-family="Calibri">Голосування за</text>
   </g>
   <g transform="matrix(0.999999 0 0 0.999999 315.933 150.961)">
    <text x="600" y="835.82"  fill="#376092" font-weight="bold" font-size="32.84px" font-family="Calibri">проєкти ГБ 2020</text>
   </g>
   <g transform="matrix(0.999999 0 0 0.999999 -473.609 -119.859)">
    <text x="600" y="835.82"  fill="#376092" font-weight="bold" font-size="32.84px" font-family="Calibri">Підрахунок голосів та</text>
   </g>
   <g transform="matrix(0.999999 0 0 0.999999 -452.713 -81.0531)">
    <text x="600" y="835.82"  fill="#376092" font-weight="bold" font-size="32.84px" font-family="Calibri">отримання статусу</text>
   </g>
   <g transform="matrix(0.999999 0 0 0.999999 -428.833 -40.7548)">
    <text x="600" y="835.82"  fill="#376092" font-weight="bold" font-size="32.84px" font-family="Calibri">переможця ГБ,</text>
   </g>
   <g transform="matrix(0.999999 0 0 0.999999 -470.624 -1.94871)">
    <text x="600" y="835.82"  fill="#376092" font-weight="bold" font-size="32.84px" font-family="Calibri">перехід до реалізації</text>
   </g>
   <g transform="matrix(0.999999 0 0 0.999999 -576.025 -423.631)">
    <text x="600" y="835.82"  fill="#376092" font-weight="bold" font-size="32.84px" font-family="Calibri">Проведення підготовчих</text>
   </g>
   <g transform="matrix(0.999999 0 0 0.999999 -576.025 -384.825)">
    <text x="600" y="835.82"  fill="#376092" font-weight="bold" font-size="32.84px" font-family="Calibri">та додаткових процедур</text>
   </g>
   <g transform="matrix(0.999999 0 0 0.999999 -510.354 -344.527)">
    <text x="600" y="835.82"  fill="#376092" font-weight="bold" font-size="32.84px" font-family="Calibri">Замовником за</text>
   </g>
   <g transform="matrix(0.999999 0 0 0.999999 -571.548 -305.721)">
    <text x="600" y="835.82"  fill="#376092" font-weight="bold" font-size="32.84px" font-family="Calibri">правилами проведення</text>
   </g>
   <g transform="matrix(0.999999 0 0 0.999999 -556.622 -266.915)">
    <text x="600" y="835.82"  fill="#376092" font-weight="bold" font-size="32.84px" font-family="Calibri">тендерних закупівель</text>
   </g>
   <g transform="matrix(0.999999 0 0 0.999999 183.829 -469.715)">
    <text x="600" y="835.82"  fill="#376092" font-weight="bold" font-size="32.84px" font-family="Calibri">Проведення процедури</text>
   </g>
   <g transform="matrix(0.999999 0 0 0.999999 198.755 -430.909)">
    <text x="600" y="835.82"  fill="#376092" font-weight="bold" font-size="32.84px" font-family="Calibri">тендерних закупівель</text>
   </g>
   <g transform="matrix(0.999999 0 0 0.999999 192.785 -390.611)">
    <text x="600" y="835.82"  fill="#376092" font-weight="bold" font-size="32.84px" font-family="Calibri">датчиків вимірювання</text>
   </g>
   <g transform="matrix(0.999999 0 0 0.999999 206.217 -351.805)">
    <text x="600" y="835.82"  fill="#376092" font-weight="bold" font-size="32.84px" font-family="Calibri">якості атмосферного</text>
   </g>
   <g transform="matrix(0.999999 0 0 0.999999 300.248 -312.999)">
    <text x="600" y="835.82"  fill="#376092" font-weight="bold" font-size="32.84px" font-family="Calibri">повітря та</text>
   </g>
   <g transform="matrix(0.999999 0 0 0.999999 170 -272.701)">
    <text x="600" y="835.82"  fill="#376092" font-weight="bold" font-size="32.84px" font-family="Calibri">програмного забезпечення</text>
   </g>
   <g transform="matrix(0.999999 0 0 0.999999 -551.619 -705.253)">
    <text x="600" y="835.82"  fill="#376092" font-weight="bold" font-size="32.84px" font-family="Calibri">Визначення переможця</text>
   </g>
   <g transform="matrix(0.999999 0 0 0.999999 -562.066 -666.447)">
    <text x="600" y="835.82"  fill="#376092" font-weight="bold" font-size="32.84px" font-family="Calibri">торгів, закупівля датчиків</text>
   </g>
   <g transform="matrix(0.999999 0 0 0.999999 -500.872 -626.148)">
    <text x="600" y="835.82"  fill="#376092" font-weight="bold" font-size="32.84px" font-family="Calibri">Виконавцем та їхнє</text>
   </g>
   <g transform="matrix(0.999999 0 0 0.999999 -478.485 -587.342)">
    <text x="600" y="835.82"  fill="#376092" font-weight="bold" font-size="32.84px" font-family="Calibri">відправлення</text>
   </g>
   <g transform="matrix(0.999999 0 0 0.999999 -499.38 -548.536)">
    <text x="600" y="835.82"  fill="#376092" font-weight="bold" font-size="32.84px" font-family="Calibri">Постачальником</text>
   </g>
   <g transform="matrix(0.999999 0 0 0.999999 -108.385 775.277)">
    <text x="600" y="835.82"  fill="#595959" font-weight="bold" font-size="49.25px" font-family="Calibri">18</text>
   </g>
   <g transform="matrix(0.999999 0 0 0.999999 -108.385 296.046)">
    <text x="600" y="835.82"  fill="#595959" font-weight="bold" font-size="49.25px" font-family="Calibri">19</text>
   </g>
   <g transform="matrix(0.999999 0 0 0.999999 -108.385 -183.185)">
    <text x="600" y="835.82"  fill="#595959" font-weight="bold" font-size="49.25px" font-family="Calibri">20</text>
   </g>
   <g transform="matrix(0.999999 0 0 0.999999 -108.385 -662.415)">
    <text x="600" y="835.82"  fill="#595959" font-weight="bold" font-size="49.25px" font-family="Calibri">21</text>
   </g>
   <g transform="matrix(0.999999 0 0 0.999999 -432.611 -751.493)">
    <text x="600" y="835.82"  fill="#376092" font-weight="bold" font-size="70.15px" font-family="Calibri">Таймлайн реалізації проєкту</text>
   </g>
  </g>
 </g>
</svg>
