<svg xmlns="http://www.w3.org/2000/svg" xmlns:xlink="http://www.w3.org/1999/xlink" width="1200" height="1672" fill-rule="evenodd" clip-rule="evenodd" image-rendering="optimizeQuality" shape-rendering="geometricPrecision" text-rendering="geometricPrecision" version="1.1" viewBox="0 0 1200 1671.64" xml:space="preserve"><g id="Layer_x0020_1"><g id="_2301854536720"><polygon fill="#fff" points="0 0 0 1671.64 1200 1671.64 1200 0"/><line x1="588.06" x2="588.06" y1="1595.52" y2="158.21" fill="none" stroke="#7F7F7F" stroke-linejoin="round" stroke-miterlimit="22.926" stroke-width="5.97"/><path fill="none" stroke="#7F7F7F" stroke-linejoin="round" stroke-miterlimit="22.926" stroke-width="5.97" d="M576.12 1595.52l11.94 0m-11.94 -40.3l11.94 0m-11.94 -38.8l11.94 0m-11.94 -40.3l11.94 0m-11.94 -40.3l11.94 0m-11.94 -40.3l11.94 0m-11.94 -38.8l11.94 0m-11.94 -40.3l11.94 0m-11.94 -40.3l11.94 0m-11.94 -40.3l11.94 0m-11.94 -38.81l11.94 0m-11.94 -40.29l11.94 0m-11.94 -40.3l11.94 0m-11.94 -40.3l11.94 0m-11.94 -38.81l11.94 0m-11.94 -40.3l11.94 0m-11.94 -40.29l11.94 0m-11.94 -40.3l11.94 0m-11.94 -40.3l11.94 0m-11.94 -38.81l11.94 0m-11.94 -40.3l11.94 0m-11.94 -40.29l11.94 0m-11.94 -40.3l11.94 0m-11.94 -38.81l11.94 0m-11.94 -40.3l11.94 0m-11.94 -40.3l11.94 0m-11.94 -40.29l11.94 0m-11.94 -38.81l11.94 0m-11.94 -40.3l11.94 0m-11.94 -40.3l11.94 0m-11.94 -40.29l11.94 0m-11.94 -38.81l11.94 0m-11.94 -40.3l11.94 0m-11.94 -40.3l11.94 0m-11.94 -40.3l11.94 0m-11.94 -38.8l11.94 0m-11.94 -40.3l11.94 0m-16.42 1437.31l31.34 0m-31.34 -479.1l31.34 0m-31.34 -479.11l31.34 0m-31.34 -479.1l31.34 0"/><path fill="#4F81BD" d="M329.1 1594.03l4.48 0 0 3.73 -4.48 0 0 -3.73zm255.23 3.73l-4.48 0 0 -3.73 4.48 0 0 3.73zm-8.96 0l-4.47 0 0 -3.73 4.47 0 0 3.73zm-8.95 0l-4.48 0 0 -3.73 4.48 0 0 3.73zm-8.96 0l-4.47 0 0 -3.73 4.47 0 0 3.73zm-8.95 0l-4.48 0 0 -3.73 4.48 0 0 3.73zm-8.96 0l-4.48 0 0 -3.73 4.48 0 0 3.73zm-8.95 0l-4.48 0 0 -3.73 4.48 0 0 3.73zm-8.96 0l-4.48 0 0 -3.73 4.48 0 0 3.73zm-8.95 0l-4.48 0 0 -3.73 4.48 0 0 3.73zm-8.96 0l-4.48 0 0 -3.73 4.48 0 0 3.73zm-8.95 0l-4.48 0 0 -3.73 4.48 0 0 3.73zm-8.96 0l-4.48 0 0 -3.73 4.48 0 0 3.73zm-8.95 0l-4.48 0 0 -3.73 4.48 0 0 3.73zm-8.96 0l-4.48 0 0 -3.73 4.48 0 0 3.73zm-8.95 0l-4.48 0 0 -3.73 4.48 0 0 3.73zm-8.96 0l-4.48 0 0 -3.73 4.48 0 0 3.73zm-8.95 0l-4.48 0 0 -3.73 4.48 0 0 3.73zm-8.96 0l-4.48 0 0 -3.73 4.48 0 0 3.73zm-8.95 0l-4.48 0 0 -3.73 4.48 0 0 3.73zm-8.96 0l-4.48 0 0 -3.73 4.48 0 0 3.73zm-8.96 0l-4.47 0 0 -3.73 4.47 0 0 3.73zm-8.95 0l-4.48 0 0 -3.73 4.48 0 0 3.73zm-8.96 0l-4.47 0 0 -3.73 4.47 0 0 3.73zm-8.95 0l-4.48 0 0 -3.73 4.48 0 0 3.73zm-8.96 0l-4.47 0 0 -3.73 4.47 0 0 3.73zm-8.95 0l-4.48 0 0 -3.73 4.48 0 0 3.73zm-8.96 0l-4.47 0 0 -3.73 4.47 0 0 3.73zm-8.95 0l-4.48 0 0 -3.73 4.48 0 0 3.73z"/><path fill="none" stroke="#4F81BD" stroke-linejoin="round" stroke-miterlimit="22.926" stroke-width=".71" d="M329.1 1594.03l4.48 0 0 3.73m-4.48 0l0 -3.73m8.96 0l4.48 0 0 3.73m-4.48 0l0 -3.73m8.96 0l4.47 0 0 3.73m-4.47 0l0 -3.73m8.95 0l4.48 0 0 3.73m-4.48 0l0 -3.73m8.96 0l4.47 0 0 3.73m-4.47 0l0 -3.73m8.95 0l4.48 0 0 3.73m-4.48 0l0 -3.73m8.96 0l4.47 0 0 3.73m-4.47 0l0 -3.73m8.95 0l4.48 0 0 3.73m-4.48 0l0 -3.73m8.96 0l4.47 0 0 3.73m-4.47 0l0 -3.73m8.95 0l4.48 0 0 3.73m-4.48 0l0 -3.73m8.96 0l4.48 0 0 3.73m-4.48 0l0 -3.73m8.95 0l4.48 0 0 3.73m-4.48 0l0 -3.73m8.96 0l4.48 0 0 3.73m-4.48 0l0 -3.73m8.95 0l4.48 0 0 3.73m-4.48 0l0 -3.73m8.96 0l4.48 0 0 3.73m-4.48 0l0 -3.73m8.95 0l4.48 0 0 3.73m-4.48 0l0 -3.73m8.96 0l4.48 0 0 3.73m-4.48 0l0 -3.73m8.95 0l4.48 0 0 3.73m-4.48 0l0 -3.73m8.96 0l4.48 0 0 3.73m-4.48 0l0 -3.73m8.95 0l4.48 0 0 3.73m-4.48 0l0 -3.73m8.96 0l4.48 0 0 3.73m-4.48 0l0 -3.73m8.95 0l4.48 0 0 3.73m-4.48 0l0 -3.73m8.96 0l4.48 0 0 3.73m-4.48 0l0 -3.73m8.95 0l4.48 0 0 3.73m-4.48 0l0 -3.73m8.96 0l4.48 0 0 3.73m-4.48 0l0 -3.73m8.96 0l4.47 0 0 3.73m-4.47 0l0 -3.73m8.95 0l4.48 0 0 3.73m-4.48 0l0 -3.73m8.96 0l4.47 0 0 3.73m-4.47 0l0 -3.73m8.95 0l4.48 0 0 3.73m-4.48 0l0 -3.73"/><path fill="#4F81BD" stroke="#4F81BD" stroke-linejoin="round" stroke-miterlimit="22.926" stroke-width=".71" d="M950 1038.8l-4.48 0 0 -4.47 4.48 0 0 4.47zm-8.96 0l-4.47 0 0 -4.47 4.47 0 0 4.47zm-8.95 0l-4.48 0 0 -4.47 4.48 0 0 4.47zm-8.96 0l-4.47 0 0 -4.47 4.47 0 0 4.47zm-8.95 0l-4.48 0 0 -4.47 4.48 0 0 4.47zm-8.96 0l-4.47 0 0 -4.47 4.47 0 0 4.47zm-8.95 0l-4.48 0 0 -4.47 4.48 0 0 4.47zm-8.96 0l-4.47 0 0 -4.47 4.47 0 0 4.47zm-8.95 0l-4.48 0 0 -4.47 4.48 0 0 4.47zm-8.96 0l-4.47 0 0 -4.47 4.47 0 0 4.47zm-8.95 0l-4.48 0 0 -4.47 4.48 0 0 4.47zm-8.96 0l-4.47 0 0 -4.47 4.47 0 0 4.47zm-8.95 0l-4.48 0 0 -4.47 4.48 0 0 4.47zm-8.96 0l-4.48 0 0 -4.47 4.48 0 0 4.47zm-8.95 0l-4.48 0 0 -4.47 4.48 0 0 4.47zm-8.96 0l-4.48 0 0 -4.47 4.48 0 0 4.47zm-8.95 0l-4.48 0 0 -4.47 4.48 0 0 4.47zm-8.96 0l-4.48 0 0 -4.47 4.48 0 0 4.47zm-8.95 0l-4.48 0 0 -4.47 4.48 0 0 4.47zm-8.96 0l-4.48 0 0 -4.47 4.48 0 0 4.47zm-8.95 0l-4.48 0 0 -4.47 4.48 0 0 4.47zm-8.96 0l-4.48 0 0 -4.47 4.48 0 0 4.47zm-8.96 0l-4.47 0 0 -4.47 4.47 0 0 4.47zm-8.95 0l-4.48 0 0 -4.47 4.48 0 0 4.47zm-8.96 0l-4.47 0 0 -4.47 4.47 0 0 4.47zm-8.95 0l-4.48 0 0 -4.47 4.48 0 0 4.47zm-8.96 0l-4.47 0 0 -4.47 4.47 0 0 4.47zm-8.95 0l-4.48 0 0 -4.47 4.48 0 0 4.47zm-8.96 0l-4.47 0 0 -4.47 4.47 0 0 4.47zm-8.95 0l-4.48 0 0 -4.47 4.48 0 0 4.47zm-8.96 0l-4.47 0 0 -4.47 4.47 0 0 4.47zm-8.95 0l-4.48 0 0 -4.47 4.48 0 0 4.47zm-8.96 0l-4.47 0 0 -4.47 4.47 0 0 4.47zm-8.95 0l-4.48 0 0 -4.47 4.48 0 0 4.47zm-8.96 0l-4.48 0 0 -4.47 4.48 0 0 4.47zm-8.95 0l-4.48 0 0 -4.47 4.48 0 0 4.47zm-8.96 0l-4.48 0 0 -4.47 4.48 0 0 4.47zm-8.95 0l-4.48 0 0 -4.47 4.48 0 0 4.47zm-8.96 0l-4.48 0 0 -4.47 4.48 0 0 4.47zm-8.95 0l-4.48 0 0 -4.47 4.48 0 0 4.47zm-8.96 0l-4.48 0 0 -4.47 4.48 0 0 4.47z"/><path fill="#4F81BD" stroke="#4F81BD" stroke-linejoin="round" stroke-miterlimit="22.926" stroke-width=".71" d="M173.88 994.03l4.48 0 0 4.48 -4.48 0 0 -4.48zm8.96 0l4.47 0 0 4.48 -4.47 0 0 -4.48zm8.95 0l4.48 0 0 4.48 -4.48 0 0 -4.48zm8.96 0l4.47 0 0 4.48 -4.47 0 0 -4.48zm8.95 0l4.48 0 0 4.48 -4.48 0 0 -4.48zm8.96 0l4.47 0 0 4.48 -4.47 0 0 -4.48zm8.95 0l4.48 0 0 4.48 -4.48 0 0 -4.48zm8.96 0l4.48 0 0 4.48 -4.48 0 0 -4.48zm8.95 0l4.48 0 0 4.48 -4.48 0 0 -4.48zm8.96 0l4.48 0 0 4.48 -4.48 0 0 -4.48zm8.95 0l4.48 0 0 4.48 -4.48 0 0 -4.48zm8.96 0l4.48 0 0 4.48 -4.48 0 0 -4.48zm8.95 0l4.48 0 0 4.48 -4.48 0 0 -4.48zm8.96 0l4.48 0 0 4.48 -4.48 0 0 -4.48zm8.95 0l4.48 0 0 4.48 -4.48 0 0 -4.48zm8.96 0l4.48 0 0 4.48 -4.48 0 0 -4.48zm8.95 0l4.48 0 0 4.48 -4.48 0 0 -4.48zm8.96 0l4.48 0 0 4.48 -4.48 0 0 -4.48zm8.96 0l4.47 0 0 4.48 -4.47 0 0 -4.48zm8.95 0l4.48 0 0 4.48 -4.48 0 0 -4.48zm8.96 0l4.47 0 0 4.48 -4.47 0 0 -4.48zm8.95 0l4.48 0 0 4.48 -4.48 0 0 -4.48zm8.96 0l4.47 0 0 4.48 -4.47 0 0 -4.48zm8.95 0l4.48 0 0 4.48 -4.48 0 0 -4.48zm8.96 0l4.47 0 0 4.48 -4.47 0 0 -4.48zm8.95 0l4.48 0 0 4.48 -4.48 0 0 -4.48zm8.96 0l4.47 0 0 4.48 -4.47 0 0 -4.48zm8.95 0l4.48 0 0 4.48 -4.48 0 0 -4.48zm8.96 0l4.47 0 0 4.48 -4.47 0 0 -4.48zm8.95 0l4.48 0 0 4.48 -4.48 0 0 -4.48zm8.96 0l4.48 0 0 4.48 -4.48 0 0 -4.48zm8.95 0l4.48 0 0 4.48 -4.48 0 0 -4.48zm8.96 0l4.48 0 0 4.48 -4.48 0 0 -4.48zm8.95 0l4.48 0 0 4.48 -4.48 0 0 -4.48zm8.96 0l4.48 0 0 4.48 -4.48 0 0 -4.48zm8.95 0l4.48 0 0 4.48 -4.48 0 0 -4.48zm8.96 0l4.48 0 0 4.48 -4.48 0 0 -4.48zm8.95 0l4.48 0 0 4.48 -4.48 0 0 -4.48zm8.96 0l4.48 0 0 4.48 -4.48 0 0 -4.48zm8.96 0l4.47 0 0 4.48 -4.47 0 0 -4.48zm8.95 0l4.48 0 0 4.48 -4.48 0 0 -4.48zm8.96 0l4.47 0 0 4.48 -4.47 0 0 -4.48zm8.95 0l4.48 0 0 4.48 -4.48 0 0 -4.48zm8.96 0l4.47 0 0 4.48 -4.47 0 0 -4.48zm8.95 0l4.48 0 0 4.48 -4.48 0 0 -4.48zm8.96 0l4.47 0 0 4.48 -4.47 0 0 -4.48zm8.95 0l1.49 0 0 4.48 -1.49 0 0 -4.48z"/><path fill="#4F81BD" stroke="#4F81BD" stroke-linejoin="round" stroke-miterlimit="22.926" stroke-width=".71" d="M847.02 959.7l-4.48 0 0 -4.48 4.48 0 0 4.48zm-8.96 0l-4.48 0 0 -4.48 4.48 0 0 4.48zm-8.96 0l-4.47 0 0 -4.48 4.47 0 0 4.48zm-8.95 0l-4.48 0 0 -4.48 4.48 0 0 4.48zm-8.96 0l-4.47 0 0 -4.48 4.47 0 0 4.48zm-8.95 0l-4.48 0 0 -4.48 4.48 0 0 4.48zm-8.96 0l-4.47 0 0 -4.48 4.47 0 0 4.48zm-8.95 0l-4.48 0 0 -4.48 4.48 0 0 4.48zm-8.96 0l-4.47 0 0 -4.48 4.47 0 0 4.48zm-8.95 0l-4.48 0 0 -4.48 4.48 0 0 4.48zm-8.96 0l-4.48 0 0 -4.48 4.48 0 0 4.48zm-8.95 0l-4.48 0 0 -4.48 4.48 0 0 4.48zm-8.96 0l-4.48 0 0 -4.48 4.48 0 0 4.48zm-8.95 0l-4.48 0 0 -4.48 4.48 0 0 4.48zm-8.96 0l-4.48 0 0 -4.48 4.48 0 0 4.48zm-8.95 0l-4.48 0 0 -4.48 4.48 0 0 4.48zm-8.96 0l-4.48 0 0 -4.48 4.48 0 0 4.48zm-8.95 0l-4.48 0 0 -4.48 4.48 0 0 4.48zm-8.96 0l-4.48 0 0 -4.48 4.48 0 0 4.48zm-8.95 0l-4.48 0 0 -4.48 4.48 0 0 4.48zm-8.96 0l-4.48 0 0 -4.48 4.48 0 0 4.48zm-8.95 0l-4.48 0 0 -4.48 4.48 0 0 4.48zm-8.96 0l-4.48 0 0 -4.48 4.48 0 0 4.48zm-8.96 0l-4.47 0 0 -4.48 4.47 0 0 4.48zm-8.95 0l-4.48 0 0 -4.48 4.48 0 0 4.48zm-8.96 0l-4.47 0 0 -4.48 4.47 0 0 4.48zm-8.95 0l-4.48 0 0 -4.48 4.48 0 0 4.48zm-8.96 0l-4.47 0 0 -4.48 4.47 0 0 4.48zm-8.95 0l-4.48 0 0 -4.48 4.48 0 0 4.48z"/><path fill="#4F81BD" stroke="#4F81BD" stroke-linejoin="round" stroke-miterlimit="22.926" stroke-width=".71" d="M276.87 914.92l4.47 0 0 4.48 -4.47 0 0 -4.48zm8.95 0l4.48 0 0 4.48 -4.48 0 0 -4.48zm8.96 0l4.47 0 0 4.48 -4.47 0 0 -4.48zm8.95 0l4.48 0 0 4.48 -4.48 0 0 -4.48zm8.96 0l4.47 0 0 4.48 -4.47 0 0 -4.48zm8.95 0l4.48 0 0 4.48 -4.48 0 0 -4.48zm8.96 0l4.48 0 0 4.48 -4.48 0 0 -4.48zm8.95 0l4.48 0 0 4.48 -4.48 0 0 -4.48zm8.96 0l4.48 0 0 4.48 -4.48 0 0 -4.48zm8.95 0l4.48 0 0 4.48 -4.48 0 0 -4.48zm8.96 0l4.48 0 0 4.48 -4.48 0 0 -4.48zm8.95 0l4.48 0 0 4.48 -4.48 0 0 -4.48zm8.96 0l4.48 0 0 4.48 -4.48 0 0 -4.48zm8.95 0l4.48 0 0 4.48 -4.48 0 0 -4.48zm8.96 0l4.48 0 0 4.48 -4.48 0 0 -4.48zm8.95 0l4.48 0 0 4.48 -4.48 0 0 -4.48zm8.96 0l4.48 0 0 4.48 -4.48 0 0 -4.48zm8.95 0l4.48 0 0 4.48 -4.48 0 0 -4.48zm8.96 0l4.48 0 0 4.48 -4.48 0 0 -4.48zm8.96 0l4.47 0 0 4.48 -4.47 0 0 -4.48zm8.95 0l4.48 0 0 4.48 -4.48 0 0 -4.48zm8.96 0l4.47 0 0 4.48 -4.47 0 0 -4.48zm8.95 0l4.48 0 0 4.48 -4.48 0 0 -4.48zm8.96 0l4.47 0 0 4.48 -4.47 0 0 -4.48zm8.95 0l4.48 0 0 4.48 -4.48 0 0 -4.48zm8.96 0l4.47 0 0 4.48 -4.47 0 0 -4.48zm8.95 0l4.48 0 0 4.48 -4.48 0 0 -4.48zm8.96 0l4.48 0 0 4.48 -4.48 0 0 -4.48zm8.95 0l4.48 0 0 4.48 -4.48 0 0 -4.48zm8.96 0l4.48 0 0 4.48 -4.48 0 0 -4.48zm8.95 0l4.48 0 0 4.48 -4.48 0 0 -4.48zm8.96 0l4.48 0 0 4.48 -4.48 0 0 -4.48zm8.95 0l4.48 0 0 4.48 -4.48 0 0 -4.48zm8.96 0l4.48 0 0 4.48 -4.48 0 0 -4.48zm8.95 0l4.48 0 0 4.48 -4.48 0 0 -4.48z"/><path fill="#4F81BD" stroke="#4F81BD" stroke-linejoin="round" stroke-miterlimit="22.926" stroke-width=".71" d="M199.25 314.93l4.48 0 0 4.47 -4.48 0 0 -4.47zm8.96 0l4.48 0 0 4.47 -4.48 0 0 -4.47zm8.96 0l4.47 0 0 4.47 -4.47 0 0 -4.47zm8.95 0l4.48 0 0 4.47 -4.48 0 0 -4.47zm8.96 0l4.47 0 0 4.47 -4.47 0 0 -4.47zm8.95 0l4.48 0 0 4.47 -4.48 0 0 -4.47zm8.96 0l4.47 0 0 4.47 -4.47 0 0 -4.47zm8.95 0l4.48 0 0 4.47 -4.48 0 0 -4.47zm8.96 0l4.47 0 0 4.47 -4.47 0 0 -4.47zm8.95 0l4.48 0 0 4.47 -4.48 0 0 -4.47zm8.96 0l4.47 0 0 4.47 -4.47 0 0 -4.47zm8.95 0l4.48 0 0 4.47 -4.48 0 0 -4.47zm8.96 0l4.47 0 0 4.47 -4.47 0 0 -4.47zm8.95 0l4.48 0 0 4.47 -4.48 0 0 -4.47zm8.96 0l4.47 0 0 4.47 -4.47 0 0 -4.47zm8.95 0l4.48 0 0 4.47 -4.48 0 0 -4.47zm8.96 0l4.48 0 0 4.47 -4.48 0 0 -4.47zm8.95 0l4.48 0 0 4.47 -4.48 0 0 -4.47zm8.96 0l4.48 0 0 4.47 -4.48 0 0 -4.47zm8.95 0l4.48 0 0 4.47 -4.48 0 0 -4.47zm8.96 0l4.48 0 0 4.47 -4.48 0 0 -4.47zm8.95 0l4.48 0 0 4.47 -4.48 0 0 -4.47zm8.96 0l4.48 0 0 4.47 -4.48 0 0 -4.47zm8.95 0l4.48 0 0 4.47 -4.48 0 0 -4.47zm8.96 0l4.48 0 0 4.47 -4.48 0 0 -4.47zm8.96 0l4.47 0 0 4.47 -4.47 0 0 -4.47zm8.95 0l4.48 0 0 4.47 -4.48 0 0 -4.47zm8.96 0l4.47 0 0 4.47 -4.47 0 0 -4.47zm8.95 0l4.48 0 0 4.47 -4.48 0 0 -4.47zm8.96 0l4.47 0 0 4.47 -4.47 0 0 -4.47zm8.95 0l4.48 0 0 4.47 -4.48 0 0 -4.47zm8.96 0l4.47 0 0 4.47 -4.47 0 0 -4.47zm8.95 0l4.48 0 0 4.47 -4.48 0 0 -4.47zm8.96 0l4.47 0 0 4.47 -4.47 0 0 -4.47zm8.95 0l4.48 0 0 4.47 -4.48 0 0 -4.47zm8.96 0l4.47 0 0 4.47 -4.47 0 0 -4.47zm8.95 0l4.48 0 0 4.47 -4.48 0 0 -4.47zm8.96 0l4.47 0 0 4.47 -4.47 0 0 -4.47zm8.95 0l4.48 0 0 4.47 -4.48 0 0 -4.47zm8.96 0l4.48 0 0 4.47 -4.48 0 0 -4.47zm8.95 0l4.48 0 0 4.47 -4.48 0 0 -4.47zm8.96 0l4.48 0 0 4.47 -4.48 0 0 -4.47zm8.95 0l4.48 0 0 4.47 -4.48 0 0 -4.47zm8.96 0l2.98 0 0 4.47 -2.98 0 0 -4.47z"/><path fill="#4F81BD" stroke="#4F81BD" stroke-linejoin="round" stroke-miterlimit="22.926" stroke-width=".71" d="M950 280.6l-4.48 0 0 -4.48 4.48 0 0 4.48zm-8.96 0l-4.47 0 0 -4.48 4.47 0 0 4.48zm-8.95 0l-4.48 0 0 -4.48 4.48 0 0 4.48zm-8.96 0l-4.47 0 0 -4.48 4.47 0 0 4.48zm-8.95 0l-4.48 0 0 -4.48 4.48 0 0 4.48zm-8.96 0l-4.47 0 0 -4.48 4.47 0 0 4.48zm-8.95 0l-4.48 0 0 -4.48 4.48 0 0 4.48zm-8.96 0l-4.47 0 0 -4.48 4.47 0 0 4.48zm-8.95 0l-4.48 0 0 -4.48 4.48 0 0 4.48zm-8.96 0l-4.47 0 0 -4.48 4.47 0 0 4.48zm-8.95 0l-4.48 0 0 -4.48 4.48 0 0 4.48zm-8.96 0l-4.47 0 0 -4.48 4.47 0 0 4.48zm-8.95 0l-4.48 0 0 -4.48 4.48 0 0 4.48zm-8.96 0l-4.48 0 0 -4.48 4.48 0 0 4.48zm-8.95 0l-4.48 0 0 -4.48 4.48 0 0 4.48zm-8.96 0l-4.48 0 0 -4.48 4.48 0 0 4.48zm-8.95 0l-4.48 0 0 -4.48 4.48 0 0 4.48zm-8.96 0l-4.48 0 0 -4.48 4.48 0 0 4.48zm-8.95 0l-4.48 0 0 -4.48 4.48 0 0 4.48zm-8.96 0l-4.48 0 0 -4.48 4.48 0 0 4.48zm-8.95 0l-4.48 0 0 -4.48 4.48 0 0 4.48zm-8.96 0l-4.48 0 0 -4.48 4.48 0 0 4.48zm-8.96 0l-4.47 0 0 -4.48 4.47 0 0 4.48zm-8.95 0l-4.48 0 0 -4.48 4.48 0 0 4.48zm-8.96 0l-4.47 0 0 -4.48 4.47 0 0 4.48zm-8.95 0l-4.48 0 0 -4.48 4.48 0 0 4.48zm-8.96 0l-4.47 0 0 -4.48 4.47 0 0 4.48zm-8.95 0l-4.48 0 0 -4.48 4.48 0 0 4.48zm-8.96 0l-4.47 0 0 -4.48 4.47 0 0 4.48zm-8.95 0l-4.48 0 0 -4.48 4.48 0 0 4.48zm-8.96 0l-4.47 0 0 -4.48 4.47 0 0 4.48zm-8.95 0l-4.48 0 0 -4.48 4.48 0 0 4.48zm-8.96 0l-4.47 0 0 -4.48 4.47 0 0 4.48zm-8.95 0l-4.48 0 0 -4.48 4.48 0 0 4.48zm-8.96 0l-4.48 0 0 -4.48 4.48 0 0 4.48zm-8.95 0l-4.48 0 0 -4.48 4.48 0 0 4.48zm-8.96 0l-4.48 0 0 -4.48 4.48 0 0 4.48zm-8.95 0l-4.48 0 0 -4.48 4.48 0 0 4.48zm-8.96 0l-4.48 0 0 -4.48 4.48 0 0 4.48zm-8.95 0l-4.48 0 0 -4.48 4.48 0 0 4.48zm-8.96 0l-4.48 0 0 -4.48 4.48 0 0 4.48z"/><path fill="#4F81BD" stroke="#4F81BD" stroke-linejoin="round" stroke-miterlimit="22.926" stroke-width=".71" d="M484.33 276.12l4.48 0 0 4.48 -4.48 0 0 -4.48zm8.95 0l4.48 0 0 4.48 -4.48 0 0 -4.48zm8.96 0l4.48 0 0 4.48 -4.48 0 0 -4.48zm8.95 0l4.48 0 0 4.48 -4.48 0 0 -4.48zm8.96 0l4.48 0 0 4.48 -4.48 0 0 -4.48zm8.96 0l4.47 0 0 4.48 -4.47 0 0 -4.48zm8.95 0l4.48 0 0 4.48 -4.48 0 0 -4.48zm8.96 0l4.47 0 0 4.48 -4.47 0 0 -4.48zm8.95 0l4.48 0 0 4.48 -4.48 0 0 -4.48zm8.96 0l4.47 0 0 4.48 -4.47 0 0 -4.48zm8.95 0l4.48 0 0 4.48 -4.48 0 0 -4.48zm8.96 0l4.47 0 0 4.48 -4.47 0 0 -4.48z"/><polygon fill="#E46C0A" points="316.79 1582.84 316.79 1608.21 342.16 1608.21 342.16 1582.84"/><polygon fill="#E46C0A" points="937.69 1024.63 937.69 1050 963.06 1050 963.06 1024.63"/><polygon fill="#E46C0A" points="161.57 984.33 161.57 1009.7 186.94 1009.7 186.94 984.33"/><polygon fill="#E46C0A" points="834.7 944.03 834.7 969.4 860.07 969.4 860.07 944.03"/><polygon fill="#E46C0A" points="264.55 903.73 264.55 929.1 289.93 929.1 289.93 903.73"/><polygon fill="#E46C0A" points="186.94 305.22 186.94 330.6 212.31 330.6 212.31 305.22"/><polygon fill="#E46C0A" points="937.69 264.93 937.69 290.3 963.06 290.3 963.06 264.93"/><polygon fill="#E46C0A" points="472.02 264.93 472.02 290.3 497.39 290.3 497.39 264.93"/><line x1="328.36" x2="329.85" y1="1595.52" y2="1540.3" fill="none" stroke="#A6A6A6" stroke-linejoin="round" stroke-miterlimit="22.926" stroke-width="2.98"/><line x1="949.25" x2="955.22" y1="1037.31" y2="1088.06" fill="none" stroke="#A6A6A6" stroke-linejoin="round" stroke-miterlimit="22.926" stroke-width="2.98"/><line x1="173.13" x2="191.05" y1="997.01" y2="1062.69" fill="none" stroke="#A6A6A6" stroke-linejoin="round" stroke-miterlimit="22.926" stroke-width="2.98"/><polyline fill="none" stroke="#A6A6A6" stroke-linejoin="round" stroke-miterlimit="22.926" stroke-width="2.98" points="846.27 956.72 897.02 955.22 907.46 955.22"/><line x1="276.12" x2="279.1" y1="916.42" y2="856.72" fill="none" stroke="#A6A6A6" stroke-linejoin="round" stroke-miterlimit="22.926" stroke-width="2.98"/><line x1="198.51" x2="197.01" y1="317.91" y2="370.15" fill="none" stroke="#A6A6A6" stroke-linejoin="round" stroke-miterlimit="22.926" stroke-width="2.98"/><line x1="949.25" x2="953.73" y1="277.61" y2="344.78" fill="none" stroke="#A6A6A6" stroke-linejoin="round" stroke-miterlimit="22.926" stroke-width="2.98"/><polyline fill="none" stroke="#A6A6A6" stroke-linejoin="round" stroke-miterlimit="22.926" stroke-width="2.98" points="483.58 277.61 441.79 197.01 429.85 197.01"/><g><text x="600" y="835.82" fill="#376092" font-family="Calibri" font-size="32.84" font-weight="bold" transform="matrix(0.999999 0 0 0.999999 -434.161 571.942)">Формування проєктної</text></g><g><text x="600" y="835.82" fill="#376092" font-family="Calibri" font-size="32.84" font-weight="bold" transform="matrix(0.999999 0 0 0.999999 -398.341 610.748)">ідеї, підготовка та</text></g><g><text x="600" y="835.82" fill="#376092" font-family="Calibri" font-size="32.84" font-weight="bold" transform="matrix(0.999999 0 0 0.999999 -404.311 651.046)">подання проєктної</text></g><g><text x="600" y="835.82" fill="#376092" font-family="Calibri" font-size="32.84" font-weight="bold" transform="matrix(0.999999 0 0 0.999999 -411.773 689.853)">пропозиції на Г2020</text></g><g><text x="600" y="835.82" fill="#376092" font-family="Calibri" font-size="32.84" font-weight="bold" transform="matrix(0.999999 0 0 0.999999 169.157 287.606)">Подання проєктної заявки</text></g><g><text x="600" y="835.82" fill="#376092" font-family="Calibri" font-size="32.84" font-weight="bold" transform="matrix(0.999999 0 0 0.999999 175.127 326.412)">на конкурс Громадського</text></g><g><text x="600" y="835.82" fill="#376092" font-family="Calibri" font-size="32.84" font-weight="bold" transform="matrix(0.999999 0 0 0.999999 200.5 366.71)">Бюджету 2020 року,</text></g><g><text x="600" y="835.82" fill="#376092" font-family="Calibri" font-size="32.84" font-weight="bold" transform="matrix(0.999999 0 0 0.999999 201.993 405.516)">публікація проєкту на</text></g><g><text x="600" y="835.82" fill="#376092" font-family="Calibri" font-size="32.84" font-weight="bold" transform="matrix(0.999999 0 0 0.999999 284.082 444.322)">ресурсі ГБ</text></g><g><text x="600" y="835.82" fill="#376092" font-family="Calibri" font-size="32.84" font-weight="bold" transform="matrix(0.999999 0 0 0.999999 -555.798 260.1)">Експертна перевірка</text></g><g><text x="600" y="835.82" fill="#376092" font-family="Calibri" font-size="32.84" font-weight="bold" transform="matrix(0.999999 0 0 0.999999 -554.306 298.905)">проєкту комісією ГБ,</text></g><g><text x="600" y="835.82" fill="#376092" font-family="Calibri" font-size="32.84" font-weight="bold" transform="matrix(0.999999 0 0 0.999999 -546.843 339.204)">доопрацювання до</text></g><g><text x="600" y="835.82" fill="#376092" font-family="Calibri" font-size="32.84" font-weight="bold" transform="matrix(0.999999 0 0 0.999999 -581.172 378.01)">отримання позитивного</text></g><g><text x="600" y="835.82" fill="#376092" font-family="Calibri" font-size="32.84" font-weight="bold" transform="matrix(0.999999 0 0 0.999999 -573.709 416.815)">висновку та допуску до</text></g><g><text x="600" y="835.82" fill="#376092" font-family="Calibri" font-size="32.84" font-weight="bold" transform="matrix(0.999999 0 0 0.999999 -497.59 457.115)">голосування</text></g><g><text x="600" y="835.82" fill="#376092" font-family="Calibri" font-size="32.84" font-weight="bold" transform="matrix(0.999999 0 0 0.999999 321.904 112.154)">Голосування за</text></g><g><text x="600" y="835.82" fill="#376092" font-family="Calibri" font-size="32.84" font-weight="bold" transform="matrix(0.999999 0 0 0.999999 315.933 150.961)">проєкти ГБ 2020</text></g><g><text x="600" y="835.82" fill="#376092" font-family="Calibri" font-size="32.84" font-weight="bold" transform="matrix(0.999999 0 0 0.999999 -473.609 -119.859)">Підрахунок голосів та</text></g><g><text x="600" y="835.82" fill="#376092" font-family="Calibri" font-size="32.84" font-weight="bold" transform="matrix(0.999999 0 0 0.999999 -452.713 -81.0531)">отримання статусу</text></g><g><text x="600" y="835.82" fill="#376092" font-family="Calibri" font-size="32.84" font-weight="bold" transform="matrix(0.999999 0 0 0.999999 -428.833 -40.7548)">переможця ГБ,</text></g><g><text x="600" y="835.82" fill="#376092" font-family="Calibri" font-size="32.84" font-weight="bold" transform="matrix(0.999999 0 0 0.999999 -470.624 -1.94871)">перехід до реалізації</text></g><g><text x="600" y="835.82" fill="#376092" font-family="Calibri" font-size="32.84" font-weight="bold" transform="matrix(0.999999 0 0 0.999999 -576.025 -423.631)">Проведення підготовчих</text></g><g><text x="600" y="835.82" fill="#376092" font-family="Calibri" font-size="32.84" font-weight="bold" transform="matrix(0.999999 0 0 0.999999 -576.025 -384.825)">та додаткових процедур</text></g><g><text x="600" y="835.82" fill="#376092" font-family="Calibri" font-size="32.84" font-weight="bold" transform="matrix(0.999999 0 0 0.999999 -510.354 -344.527)">Замовником за</text></g><g><text x="600" y="835.82" fill="#376092" font-family="Calibri" font-size="32.84" font-weight="bold" transform="matrix(0.999999 0 0 0.999999 -571.548 -305.721)">правилами проведення</text></g><g><text x="600" y="835.82" fill="#376092" font-family="Calibri" font-size="32.84" font-weight="bold" transform="matrix(0.999999 0 0 0.999999 -556.622 -266.915)">тендерних закупівель</text></g><g><text x="600" y="835.82" fill="#376092" font-family="Calibri" font-size="32.84" font-weight="bold" transform="matrix(0.999999 0 0 0.999999 183.829 -469.715)">Проведення процедури</text></g><g><text x="600" y="835.82" fill="#376092" font-family="Calibri" font-size="32.84" font-weight="bold" transform="matrix(0.999999 0 0 0.999999 198.755 -430.909)">тендерних закупівель</text></g><g><text x="600" y="835.82" fill="#376092" font-family="Calibri" font-size="32.84" font-weight="bold" transform="matrix(0.999999 0 0 0.999999 192.785 -390.611)">датчиків вимірювання</text></g><g><text x="600" y="835.82" fill="#376092" font-family="Calibri" font-size="32.84" font-weight="bold" transform="matrix(0.999999 0 0 0.999999 206.217 -351.805)">якості атмосферного</text></g><g><text x="600" y="835.82" fill="#376092" font-family="Calibri" font-size="32.84" font-weight="bold" transform="matrix(0.999999 0 0 0.999999 300.248 -312.999)">повітря та</text></g><g><text x="600" y="835.82" fill="#376092" font-family="Calibri" font-size="32.84" font-weight="bold" transform="matrix(0.999999 0 0 0.999999 170 -272.701)">програмного забезпечення</text></g><g><text x="600" y="835.82" fill="#376092" font-family="Calibri" font-size="32.84" font-weight="bold" transform="matrix(0.999999 0 0 0.999999 -551.619 -705.253)">Визначення переможця</text></g><g><text x="600" y="835.82" fill="#376092" font-family="Calibri" font-size="32.84" font-weight="bold" transform="matrix(0.999999 0 0 0.999999 -562.066 -666.447)">торгів, закупівля датчиків</text></g><g><text x="600" y="835.82" fill="#376092" font-family="Calibri" font-size="32.84" font-weight="bold" transform="matrix(0.999999 0 0 0.999999 -500.872 -626.148)">Виконавцем та їхнє</text></g><g><text x="600" y="835.82" fill="#376092" font-family="Calibri" font-size="32.84" font-weight="bold" transform="matrix(0.999999 0 0 0.999999 -478.485 -587.342)">відправлення</text></g><g><text x="600" y="835.82" fill="#376092" font-family="Calibri" font-size="32.84" font-weight="bold" transform="matrix(0.999999 0 0 0.999999 -499.38 -548.536)">Постачальником</text></g><g><text x="600" y="835.82" fill="#595959" font-family="Calibri" font-size="49.25" font-weight="bold" transform="matrix(0.999999 0 0 0.999999 -108.385 775.277)">18</text></g><g><text x="600" y="835.82" fill="#595959" font-family="Calibri" font-size="49.25" font-weight="bold" transform="matrix(0.999999 0 0 0.999999 -108.385 296.046)">19</text></g><g><text x="600" y="835.82" fill="#595959" font-family="Calibri" font-size="49.25" font-weight="bold" transform="matrix(0.999999 0 0 0.999999 -108.385 -183.185)">20</text></g><g><text x="600" y="835.82" fill="#595959" font-family="Calibri" font-size="49.25" font-weight="bold" transform="matrix(0.999999 0 0 0.999999 -108.385 -662.415)">21</text></g><g><text x="600" y="835.82" fill="#376092" font-family="Calibri" font-size="70.15" font-weight="bold" transform="matrix(0.999999 0 0 0.999999 -432.611 -751.493)">Таймлайн реалізації проєкту</text></g></g></g></svg>