<?xml version="1.0" encoding="UTF-8"?>
<svg xmlns="http://www.w3.org/2000/svg" xml:space="preserve" width="1200px" height="675px" version="1.1" shape-rendering="geometricPrecision" text-rendering="geometricPrecision" image-rendering="optimizeQuality" fill-rule="evenodd" clip-rule="evenodd"
viewBox="0 0 1214.78 683.84"
 xmlns:xlink="http://www.w3.org/1999/xlink">
 <g id="Layer_x0020_1">
  <g id="_1766679314512">
   <polygon fill="#FFFFCC" points="996.1,522.52 1214.16,522.52 1214.16,436.09 996.1,436.09 "/>
  </g>
  <g id="_1766679313872">
   <polygon fill="#A2D9F7" stroke="gray" stroke-width="1.25" stroke-miterlimit="22.9256" points="996.1,522.52 1214.16,522.52 1214.16,436.09 996.1,436.09 "/>
  </g>
  <g id="_1766679313072">
   <text x="1061.41" y="455.12"  fill="black" font-weight="bold" font-size="13.69px" font-family="Arial">Documents</text>
  </g>
  <g id="_1766679316528">
   <line fill="none" stroke="gray" stroke-width="1.25" stroke-linecap="square" stroke-miterlimit="22.9256" x1="997.15" y1="462.02" x2="1213.1" y2= "462.02" />
  </g>
  <g id="_1766679315600">
   <text x="1023.49" y="478.66"  fill="black" font-weight="bold" font-size="10.53px" font-family="Arial">documentId</text>
   <text x="1119.35" y="478.66"  fill="black" font-weight="normal" font-size="10.53px" font-family="Arial">INTEGER</text>
   <text x="1023.49" y="497.24"  fill="black" font-weight="bold" font-size="10.53px" font-family="Arial">documentType</text>
   <text x="1119.35" y="497.24"  fill="black" font-weight="normal" font-size="10.53px" font-family="Arial">document_type</text>
   <text x="1023.49" y="515.83"  fill="black" font-weight="normal" font-size="10.53px" font-family="Arial">documentBody</text>
   <text x="1119.35" y="515.83"  fill="black" font-weight="normal" font-size="10.53px" font-family="Arial">TEXT</text>
  </g>
  <g id="_1766679320592">
   <polygon fill="#FFFFCC" points="387.75,455.09 555.24,455.09 555.24,387.24 387.75,387.24 "/>
  </g>
  <g id="_1766679319728">
   <polygon fill="#A2D9F7" stroke="gray" stroke-width="1.25" stroke-miterlimit="22.9256" points="387.75,455.09 555.24,455.09 555.24,387.24 387.75,387.24 "/>
  </g>
  <g id="_1766679320048">
   <text x="448.85" y="406.27"  fill="black" font-weight="bold" font-size="13.69px" font-family="Arial">Photo</text>
  </g>
  <g id="_1766679321360">
   <line fill="none" stroke="gray" stroke-width="1.25" stroke-linecap="square" stroke-miterlimit="22.9256" x1="388.28" y1="413.56" x2="553.66" y2= "413.56" />
  </g>
  <g id="_1766679322768">
   <text x="415.14" y="429.81"  fill="black" font-weight="bold" font-size="10.53px" font-family="Arial">photoId</text>
   <text x="493.09" y="429.81"  fill="black" font-weight="normal" font-size="10.53px" font-family="Arial">INTEGER</text>
   <text x="415.14" y="448.39"  fill="black" font-weight="bold" font-size="10.53px" font-family="Arial">photoSeries</text>
   <text x="493.09" y="448.39"  fill="black" font-weight="normal" font-size="10.53px" font-family="Arial">BYTEA[]</text>
  </g>
  <g id="_1766679324720">
   <polygon fill="#FFFFCC" points="4.31,105.64 308.75,105.64 308.75,0.62 4.31,0.62 "/>
  </g>
  <g id="_1766679324624">
   <polygon fill="#A2D9F7" stroke="gray" stroke-width="1.25" stroke-miterlimit="22.9256" points="4.31,105.64 308.75,105.64 308.75,0.62 4.31,0.62 "/>
  </g>
  <g id="_1766679323120">
   <text x="99.12" y="19.66"  fill="black" font-weight="bold" font-size="13.69px" font-family="Arial">Measurements</text>
  </g>
  <g id="_1766679325840">
   <line fill="none" stroke="gray" stroke-width="1.25" stroke-linecap="square" stroke-miterlimit="22.9256" x1="4.84" y1="26.96" x2="307.17" y2= "26.96" />
  </g>
  <g id="_1766679326352">
   <text x="14.84" y="43.2"  fill="black" font-weight="bold" font-size="10.53px" font-family="Arial">locationId</text>
   <text x="86.48" y="43.2"  fill="black" font-weight="normal" font-size="10.53px" font-family="Arial">INTEGER</text>
  </g>
  <g id="_1766679328080">
   <text x="14.84" y="61.78"  fill="black" font-weight="bold" font-size="10.53px" font-family="Arial">sensorId</text>
   <text x="86.48" y="61.78"  fill="black" font-weight="normal" font-size="10.53px" font-family="Arial">INTEGER</text>
  </g>
  <g id="_1766679328432">
   <text x="14.84" y="80.36"  fill="black" font-weight="bold" font-size="10.53px" font-family="Arial">timestamp</text>
   <text x="86.48" y="80.36"  fill="black" font-weight="normal" font-size="10.53px" font-family="Arial">TIMESTAMP(6) WITHOUT TIME ZONE</text>
   <text x="14.84" y="98.95"  fill="black" font-weight="bold" font-size="10.53px" font-family="Arial">values</text>
   <text x="86.48" y="98.95"  fill="black" font-weight="normal" font-size="10.53px" font-family="Arial">USER-DEFINED[]</text>
  </g>
  <g id="_1766679332080">
   <polygon fill="#FFFFCC" points="649.53,273.85 903.4,273.85 903.4,113.08 649.53,113.08 "/>
  </g>
  <g id="_1766679331920">
   <polygon fill="#A2D9F7" stroke="gray" stroke-width="1.25" stroke-miterlimit="22.9256" points="649.53,273.85 903.4,273.85 903.4,113.08 649.53,113.08 "/>
  </g>
  <g id="_1766679333072">
   <text x="739.59" y="132.11"  fill="black" font-weight="bold" font-size="13.69px" font-family="Arial">Locations</text>
  </g>
  <g id="_1766679333936">
   <line fill="none" stroke="gray" stroke-width="1.25" stroke-linecap="square" stroke-miterlimit="22.9256" x1="650.58" y1="138.62" x2="902.34" y2= "138.62" />
  </g>
  <g id="_1766679334768">
   <text x="676.91" y="155.65"  fill="black" font-weight="bold" font-size="10.53px" font-family="Arial">locationId</text>
   <text x="761.19" y="155.65"  fill="black" font-weight="normal" font-size="10.53px" font-family="Arial">INTEGER</text>
   <text x="676.91" y="174.23"  fill="black" font-weight="bold" font-size="10.53px" font-family="Arial">locationPoint</text>
   <text x="761.19" y="174.23"  fill="black" font-weight="normal" font-size="10.53px" font-family="Arial">POINT</text>
   <text x="676.91" y="192.82"  fill="black" font-weight="bold" font-size="10.53px" font-family="Arial">elevation</text>
   <text x="761.19" y="192.82"  fill="black" font-weight="normal" font-size="10.53px" font-family="Arial">DOUBLE PRECISION</text>
   <text x="676.91" y="211.4"  fill="black" font-weight="normal" font-size="10.53px" font-family="Arial">address</text>
   <text x="761.19" y="211.4"  fill="black" font-weight="normal" font-size="10.53px" font-family="Arial">TEXT</text>
   <text x="676.91" y="229.98"  fill="black" font-weight="normal" font-size="10.53px" font-family="Arial">airlyLink</text>
   <text x="761.19" y="229.98"  fill="black" font-weight="normal" font-size="10.53px" font-family="Arial">TEXT</text>
   <text x="676.91" y="248.56"  fill="black" font-weight="normal" font-size="10.53px" font-family="Arial">mapsLink</text>
   <text x="761.19" y="248.56"  fill="black" font-weight="normal" font-size="10.53px" font-family="Arial">TEXT</text>
   <text x="676.91" y="267.15"  fill="black" font-weight="bold" font-size="10.53px" font-family="Arial">documentId</text>
   <text x="761.19" y="267.15"  fill="black" font-weight="normal" font-size="10.53px" font-family="Arial">INTEGER</text>
  </g>
  <g id="_1766679341584">
   <polygon fill="#FFFFCC" points="375.64,325.6 567.36,325.6 567.36,220.58 375.64,220.58 "/>
  </g>
  <g id="_1766679341744">
   <polygon fill="#A2D9F7" stroke="gray" stroke-width="1.25" stroke-miterlimit="22.9256" points="375.64,325.6 567.36,325.6 567.36,220.58 375.64,220.58 "/>
  </g>
  <g id="_1766679344944">
   <text x="408.82" y="239.61"  fill="black" font-weight="bold" font-size="13.69px" font-family="Arial">PollutionFactors</text>
  </g>
  <g id="_1766679344688">
   <line fill="none" stroke="gray" stroke-width="1.25" stroke-linecap="square" stroke-miterlimit="22.9256" x1="376.69" y1="246.07" x2="566.31" y2= "246.07" />
  </g>
  <g id="_1766679345264">
   <text x="403.03" y="263.16"  fill="black" font-weight="bold" font-size="10.53px" font-family="Arial">factorId</text>
   <text x="455.7" y="263.16"  fill="black" font-weight="normal" font-size="10.53px" font-family="Arial">INTEGER</text>
   <text x="403.03" y="281.74"  fill="black" font-weight="bold" font-size="10.53px" font-family="Arial">name</text>
   <text x="455.7" y="281.74"  fill="black" font-weight="normal" font-size="10.53px" font-family="Arial">TEXT</text>
   <text x="403.03" y="300.32"  fill="black" font-weight="bold" font-size="10.53px" font-family="Arial">label</text>
   <text x="455.7" y="300.32"  fill="black" font-weight="normal" font-size="10.53px" font-family="Arial">TEXT</text>
   <text x="403.03" y="318.9"  fill="black" font-weight="bold" font-size="10.53px" font-family="Arial">unit</text>
   <text x="455.7" y="318.9"  fill="black" font-weight="normal" font-size="10.53px" font-family="Arial">measurement_unit</text>
  </g>
  <g id="_1766679350416">
   <polygon fill="#FFFFCC" points="83.32,194.57 229.74,194.57 229.74,126.71 83.32,126.71 "/>
  </g>
  <g id="_1766679351280">
   <polygon fill="#A2D9F7" stroke="gray" stroke-width="1.25" stroke-miterlimit="22.9256" points="83.32,194.57 229.74,194.57 229.74,126.71 83.32,126.71 "/>
  </g>
  <g id="_1766679349776">
   <text x="101.22" y="145.74"  fill="black" font-weight="bold" font-size="13.69px" font-family="Arial">SensorFactors</text>
  </g>
  <g id="_1766679350736">
   <line fill="none" stroke="gray" stroke-width="1.25" stroke-linecap="square" stroke-miterlimit="22.9256" x1="83.84" y1="152.31" x2="228.16" y2= "152.31" />
  </g>
  <g id="_1766679352272">
   <text x="93.85" y="169.29"  fill="black" font-weight="bold" font-size="10.53px" font-family="Arial">sensorId</text>
   <text x="150.74" y="169.29"  fill="black" font-weight="normal" font-size="10.53px" font-family="Arial">INTEGER</text>
  </g>
  <g id="_1766679352368">
   <text x="93.85" y="187.87"  fill="black" font-weight="normal" font-size="10.53px" font-family="Arial">factorId</text>
   <text x="150.74" y="187.87"  fill="black" font-weight="normal" font-size="10.53px" font-family="Arial">INTEGER</text>
  </g>
  <g id="_1766679354672">
   <polygon fill="#FFFFCC" points="379.85,199.51 563.15,199.51 563.15,94.49 379.85,94.49 "/>
  </g>
  <g id="_1766679354256">
   <polygon fill="#A2D9F7" stroke="gray" stroke-width="1.25" stroke-miterlimit="22.9256" points="379.85,199.51 563.15,199.51 563.15,94.49 379.85,94.49 "/>
  </g>
  <g id="_1766679287504">
   <text x="440.95" y="113.53"  fill="black" font-weight="bold" font-size="13.69px" font-family="Arial">Sensors</text>
  </g>
  <g id="_1766679288112">
   <line fill="none" stroke="gray" stroke-width="1.25" stroke-linecap="square" stroke-miterlimit="22.9256" x1="380.91" y1="120.71" x2="562.09" y2= "120.71" />
  </g>
  <g id="_1766679289712">
   <text x="407.24" y="137.07"  fill="black" font-weight="bold" font-size="10.53px" font-family="Arial">sensorId</text>
   <text x="484.14" y="137.07"  fill="black" font-weight="normal" font-size="10.53px" font-family="Arial">INTEGER</text>
   <text x="407.24" y="155.65"  fill="black" font-weight="bold" font-size="10.53px" font-family="Arial">locationId</text>
   <text x="484.14" y="155.65"  fill="black" font-weight="normal" font-size="10.53px" font-family="Arial">INTEGER</text>
  </g>
  <g id="_1766679303408">
   <text x="407.24" y="174.23"  fill="black" font-weight="normal" font-size="10.53px" font-family="Arial">manufacturer</text>
   <text x="484.14" y="174.23"  fill="black" font-weight="normal" font-size="10.53px" font-family="Arial">TEXT</text>
   <text x="407.24" y="192.82"  fill="black" font-weight="normal" font-size="10.53px" font-family="Arial">model</text>
   <text x="484.14" y="192.82"  fill="black" font-weight="normal" font-size="10.53px" font-family="Arial">TEXT</text>
  </g>
  <g id="_1766559076816">
   <polygon fill="#FFFFCC" points="0.62,417.14 312.43,417.14 312.43,274.96 0.62,274.96 "/>
  </g>
  <g id="_1766559082416">
   <polygon fill="#A2D9F7" stroke="gray" stroke-width="1.25" stroke-miterlimit="22.9256" points="0.62,417.14 312.43,417.14 312.43,274.96 0.62,274.96 "/>
  </g>
  <g id="_1766554913744">
   <text x="114.39" y="293.99"  fill="black" font-weight="bold" font-size="13.69px" font-family="Arial">ServiceLog</text>
  </g>
  <g id="_1766554895024">
   <line fill="none" stroke="gray" stroke-width="1.25" stroke-linecap="square" stroke-miterlimit="22.9256" x1="1.68" y1="300.85" x2="311.38" y2= "300.85" />
  </g>
  <g id="_1766554490768">
   <text x="11.16" y="317.53"  fill="black" font-weight="bold" font-size="10.53px" font-family="Arial">timestamp</text>
   <text x="90.16" y="317.53"  fill="black" font-weight="normal" font-size="10.53px" font-family="Arial">TIMESTAMP(6) WITHOUT TIME ZONE</text>
   <text x="11.16" y="336.11"  fill="black" font-weight="bold" font-size="10.53px" font-family="Arial">serviceType</text>
   <text x="90.16" y="336.11"  fill="black" font-weight="normal" font-size="10.53px" font-family="Arial">service_type</text>
   <text x="11.16" y="354.69"  fill="black" font-weight="bold" font-size="10.53px" font-family="Arial">sensorId</text>
   <text x="90.16" y="354.69"  fill="black" font-weight="normal" font-size="10.53px" font-family="Arial">INTEGER</text>
  </g>
  <g id="_1766674270752">
   <text x="11.16" y="373.28"  fill="black" font-weight="normal" font-size="10.53px" font-family="Arial">locationId</text>
   <text x="90.16" y="373.28"  fill="black" font-weight="normal" font-size="10.53px" font-family="Arial">INTEGER</text>
  </g>
  <g id="_1766674272544">
   <text x="11.16" y="391.86"  fill="black" font-weight="bold" font-size="10.53px" font-family="Arial">documentId</text>
   <text x="90.16" y="391.86"  fill="black" font-weight="normal" font-size="10.53px" font-family="Arial">INTEGER</text>
  </g>
  <g id="_1766674274080">
   <text x="11.16" y="410.44"  fill="black" font-weight="normal" font-size="10.53px" font-family="Arial">photoId</text>
   <text x="90.16" y="410.44"  fill="black" font-weight="normal" font-size="10.53px" font-family="Arial">INTEGER</text>
  </g>
  <g id="_1766674275008">
   <polygon fill="#FFFFCC" points="630.56,672.16 922.36,672.16 922.36,492.81 630.56,492.81 "/>
  </g>
  <g id="_1766674275456">
   <polygon fill="#A2D9F7" stroke="gray" stroke-width="1.25" stroke-miterlimit="22.9256" points="630.56,672.16 922.36,672.16 922.36,492.81 630.56,492.81 "/>
  </g>
  <g id="_1766674275552">
   <text x="726.95" y="511.84"  fill="black" font-weight="bold" font-size="13.69px" font-family="Arial">Organisation</text>
  </g>
  <g id="_1766674277984">
   <line fill="none" stroke="gray" stroke-width="1.25" stroke-linecap="square" stroke-miterlimit="22.9256" x1="631.62" y1="518.9" x2="921.31" y2= "518.9" />
  </g>
  <g id="_1766674277824">
   <text x="657.95" y="535.38"  fill="black" font-weight="bold" font-size="10.53px" font-family="Arial">organisationId</text>
   <text x="749.6" y="535.38"  fill="black" font-weight="normal" font-size="10.53px" font-family="Arial">INTEGER</text>
   <text x="657.95" y="553.96"  fill="black" font-weight="bold" font-size="10.53px" font-family="Arial">fullName</text>
   <text x="749.6" y="553.96"  fill="black" font-weight="normal" font-size="10.53px" font-family="Arial">TEXT</text>
   <text x="657.95" y="572.55"  fill="black" font-weight="normal" font-size="10.53px" font-family="Arial">shortName</text>
   <text x="749.6" y="572.55"  fill="black" font-weight="normal" font-size="10.53px" font-family="Arial">TEXT</text>
   <text x="657.95" y="591.13"  fill="black" font-weight="normal" font-size="10.53px" font-family="Arial">country</text>
   <text x="749.6" y="591.13"  fill="black" font-weight="normal" font-size="10.53px" font-family="Arial">CHARACTER VARYING(56)</text>
   <text x="657.95" y="609.71"  fill="black" font-weight="bold" font-size="10.53px" font-family="Arial">rntrc</text>
   <text x="749.6" y="609.71"  fill="black" font-weight="normal" font-size="10.53px" font-family="Arial">CHARACTER(8)</text>
   <text x="657.95" y="628.29"  fill="black" font-weight="normal" font-size="10.53px" font-family="Arial">registryLink</text>
   <text x="749.6" y="628.29"  fill="black" font-weight="normal" font-size="10.53px" font-family="Arial">TEXT</text>
   <text x="657.95" y="646.88"  fill="black" font-weight="normal" font-size="10.53px" font-family="Arial">organisationRole</text>
   <text x="749.6" y="646.88"  fill="black" font-weight="normal" font-size="10.53px" font-family="Arial">TEXT</text>
   <text x="657.95" y="665.46"  fill="black" font-weight="bold" font-size="10.53px" font-family="Arial">documentId</text>
   <text x="749.6" y="665.46"  fill="black" font-weight="normal" font-size="10.53px" font-family="Arial">INTEGER</text>
  </g>
  <g id="_1766674288768">
   <polygon fill="#FFFFCC" points="4.31,562.6 308.75,562.6 308.75,457.58 4.31,457.58 "/>
  </g>
  <g id="_1766674288224">
   <polygon fill="#A2D9F7" stroke="gray" stroke-width="1.25" stroke-miterlimit="22.9256" points="4.31,562.6 308.75,562.6 308.75,457.58 4.31,457.58 "/>
  </g>
  <g id="_1766674287904">
   <text x="118.08" y="476.61"  fill="black" font-weight="bold" font-size="13.69px" font-family="Arial">UsageLog</text>
  </g>
  <g id="_1766674289408">
   <line fill="none" stroke="gray" stroke-width="1.25" stroke-linecap="square" stroke-miterlimit="22.9256" x1="4.84" y1="483.09" x2="307.17" y2= "483.09" />
  </g>
  <g id="_1766674291104">
   <text x="14.84" y="500.15"  fill="black" font-weight="bold" font-size="10.53px" font-family="Arial">timestamp</text>
   <text x="86.48" y="500.15"  fill="black" font-weight="normal" font-size="10.53px" font-family="Arial">TIMESTAMP(6) WITHOUT TIME ZONE</text>
   <text x="14.84" y="518.73"  fill="black" font-weight="bold" font-size="10.53px" font-family="Arial">userId</text>
   <text x="86.48" y="518.73"  fill="black" font-weight="normal" font-size="10.53px" font-family="Arial">INTEGER</text>
  </g>
  <g id="_1766674291360">
   <text x="14.84" y="537.32"  fill="black" font-weight="bold" font-size="10.53px" font-family="Arial">query</text>
   <text x="86.48" y="537.32"  fill="black" font-weight="normal" font-size="10.53px" font-family="Arial">TEXT</text>
   <text x="14.84" y="555.9"  fill="black" font-weight="bold" font-size="10.53px" font-family="Arial">queryType</text>
   <text x="86.48" y="555.9"  fill="black" font-weight="normal" font-size="10.53px" font-family="Arial">CHARACTER(6)</text>
  </g>
  <g id="_1766674295872">
   <polygon fill="#FFFFCC" points="378.27,636.93 564.73,636.93 564.73,476.16 378.27,476.16 "/>
  </g>
  <g id="_1766674296960">
   <polygon fill="#A2D9F7" stroke="gray" stroke-width="1.25" stroke-miterlimit="22.9256" points="378.27,636.93 564.73,636.93 564.73,476.16 378.27,476.16 "/>
  </g>
  <g id="_1766674295808">
   <text x="449.9" y="495.19"  fill="black" font-weight="bold" font-size="13.69px" font-family="Arial">Users</text>
  </g>
  <g id="_1766674296864">
   <line fill="none" stroke="gray" stroke-width="1.25" stroke-linecap="square" stroke-miterlimit="22.9256" x1="378.8" y1="502.05" x2="563.15" y2= "502.05" />
  </g>
  <g id="_1766674295552">
   <text x="405.66" y="518.73"  fill="black" font-weight="bold" font-size="10.53px" font-family="Arial">userId</text>
   <text x="485.72" y="518.73"  fill="black" font-weight="normal" font-size="10.53px" font-family="Arial">INTEGER</text>
   <text x="405.66" y="537.32"  fill="black" font-weight="normal" font-size="10.53px" font-family="Arial">fullName</text>
   <text x="485.72" y="537.32"  fill="black" font-weight="normal" font-size="10.53px" font-family="Arial">TEXT</text>
   <text x="405.66" y="555.9"  fill="black" font-weight="bold" font-size="10.53px" font-family="Arial">email</text>
   <text x="485.72" y="555.9"  fill="black" font-weight="normal" font-size="10.53px" font-family="Arial">TEXT</text>
   <text x="405.66" y="574.48"  fill="black" font-weight="normal" font-size="10.53px" font-family="Arial">phoneNumber</text>
   <text x="485.72" y="574.48"  fill="black" font-weight="normal" font-size="10.53px" font-family="Arial">TEXT</text>
   <text x="405.66" y="593.07"  fill="black" font-weight="normal" font-size="10.53px" font-family="Arial">organisationId</text>
   <text x="485.72" y="593.07"  fill="black" font-weight="normal" font-size="10.53px" font-family="Arial">INTEGER</text>
  </g>
  <g id="_1766674301856">
   <text x="405.66" y="611.65"  fill="black" font-weight="normal" font-size="10.53px" font-family="Arial">userRole</text>
   <text x="485.72" y="611.65"  fill="black" font-weight="normal" font-size="10.53px" font-family="Arial">TEXT</text>
   <text x="405.66" y="630.23"  fill="black" font-weight="bold" font-size="10.53px" font-family="Arial">documentId</text>
   <text x="485.72" y="630.23"  fill="black" font-weight="normal" font-size="10.53px" font-family="Arial">INTEGER</text>
  </g>
  <polygon fill="black" stroke="gray" stroke-width="1.25" stroke-miterlimit="22.9256" points="903.43,262.45 903.43,262.45 "/>
  <polyline fill="none" stroke="gray" stroke-width="1.25" stroke-miterlimit="22.9256" points="903.43,262.45 975.03,262.45 975.03,464.32 982.33,473.96 987.63,473.96 "/>
  <polygon fill="gray" points="996.06,473.96 983.42,468.69 986.58,473.96 983.42,479.23 "/>
  <polygon fill="black" stroke="gray" stroke-width="1.25" stroke-miterlimit="22.9256" points="312.47,387.16 312.47,387.16 "/>
  <polyline fill="none" stroke="gray" stroke-width="1.25" stroke-miterlimit="22.9256" points="312.47,387.16 333.5,387.16 333.5,376.18 964.5,376.18 964.5,464.58 972.32,473.96 987.64,473.96 "/>
  <polygon fill="gray" points="996.07,473.96 983.43,468.69 986.59,473.96 983.43,479.23 "/>
  <polygon fill="black" stroke="gray" stroke-width="1.25" stroke-miterlimit="22.9256" points="922.4,660.76 922.4,660.76 "/>
  <polyline fill="none" stroke="gray" stroke-width="1.25" stroke-miterlimit="22.9256" points="922.4,660.76 943.43,660.76 943.43,473.96 987.62,473.96 "/>
  <polygon fill="gray" points="996.05,473.96 983.41,468.69 986.57,473.96 983.41,479.23 "/>
  <polygon fill="black" stroke="gray" stroke-width="1.25" stroke-miterlimit="22.9256" points="564.75,625.53 564.75,625.53 "/>
  <polyline fill="none" stroke="gray" stroke-width="1.25" stroke-miterlimit="22.9256" points="564.75,625.53 593.69,625.53 593.69,683.22 953.96,683.22 953.96,483.81 962.05,473.96 987.63,473.96 "/>
  <polygon fill="gray" points="996.06,473.96 983.42,468.69 986.58,473.96 983.42,479.23 "/>
  <polygon fill="black" stroke="gray" stroke-width="1.25" stroke-miterlimit="22.9256" points="312.47,405.74 312.47,405.74 "/>
  <polyline fill="none" stroke="gray" stroke-width="1.25" stroke-miterlimit="22.9256" points="312.47,405.74 333.5,405.74 333.5,425.11 379.3,425.11 "/>
  <polygon fill="gray" points="387.73,425.11 375.08,419.85 378.25,425.11 375.08,430.38 "/>
  <polygon fill="black" stroke="gray" stroke-width="1.25" stroke-miterlimit="22.9256" points="308.79,38.5 308.79,38.5 "/>
  <polyline fill="none" stroke="gray" stroke-width="1.25" stroke-miterlimit="22.9256" points="308.79,38.5 333.5,38.5 333.5,34.46 604.23,34.46 604.23,142.5 612.32,150.95 641.05,150.95 "/>
  <polygon fill="gray" points="649.48,150.95 636.84,145.68 640,150.95 636.84,156.22 "/>
  <polygon fill="black" stroke="gray" stroke-width="1.25" stroke-miterlimit="22.9256" points="308.79,57.08 308.79,57.08 "/>
  <polyline fill="none" stroke="gray" stroke-width="1.25" stroke-miterlimit="22.9256" points="308.79,57.08 354.57,57.08 354.57,122.49 362.13,132.37 371.38,132.37 "/>
  <polygon fill="gray" points="379.8,132.37 367.16,127.1 370.32,132.37 367.16,137.63 "/>
  <g>
   <path fill="black" d="M563.19 150.95l77.87 0 -77.87 0zm0 0l0 0 0 0z"/>
   <path id="1" fill="none" stroke="gray" stroke-width="1.25" stroke-miterlimit="22.9256" d="M563.19 150.95l77.87 0m-77.87 0l0 0 0 0z"/>
  </g>
  <polygon fill="gray" points="649.48,150.95 636.84,145.68 640,150.95 636.84,156.22 "/>
  <polygon fill="black" stroke="gray" stroke-width="1.25" stroke-miterlimit="22.9256" points="312.47,368.58 312.47,368.58 "/>
  <polyline fill="none" stroke="gray" stroke-width="1.25" stroke-miterlimit="22.9256" points="312.47,368.58 354.57,368.58 354.57,348.93 593.69,348.93 593.69,158.83 602.05,150.95 641.07,150.95 "/>
  <polygon fill="gray" points="649.5,150.95 636.86,145.68 640.02,150.95 636.86,156.22 "/>
  <polygon fill="black" stroke="gray" stroke-width="1.25" stroke-miterlimit="22.9256" points="229.77,183.17 229.77,183.17 "/>
  <polyline fill="none" stroke="gray" stroke-width="1.25" stroke-miterlimit="22.9256" points="229.77,183.17 354.57,183.17 354.57,258.46 367.17,258.46 "/>
  <polygon fill="gray" points="375.6,258.46 362.96,253.19 366.12,258.46 362.96,263.72 "/>
  <polygon fill="black" stroke="gray" stroke-width="1.25" stroke-miterlimit="22.9256" points="229.79,164.59 229.79,164.59 "/>
  <polyline fill="none" stroke="gray" stroke-width="1.25" stroke-miterlimit="22.9256" points="229.79,164.59 333.5,164.59 333.5,132.37 371.38,132.37 "/>
  <polygon fill="gray" points="379.81,132.37 367.17,127.1 370.33,132.37 367.17,137.63 "/>
  <polygon fill="black" stroke="gray" stroke-width="1.25" stroke-miterlimit="22.9256" points="312.46,349.99 312.46,349.99 "/>
  <path fill="none" stroke="gray" stroke-width="1.25" stroke-miterlimit="22.9256" d="M312.46 349.99l31.58 0 0 -161.55c3.51,0 5.26,-1.76 5.26,-5.27 0,-3.51 -1.75,-5.27 -5.26,-5.27l0 -36.71 8.08 -8.82 19.27 0"/>
  <polygon fill="gray" points="379.82,132.37 367.18,127.1 370.34,132.37 367.18,137.63 "/>
  <polygon fill="black" stroke="gray" stroke-width="1.25" stroke-miterlimit="22.9256" points="564.75,588.37 564.75,588.37 "/>
  <polyline fill="none" stroke="gray" stroke-width="1.25" stroke-miterlimit="22.9256" points="564.75,588.37 593.69,588.37 593.69,530.68 622.1,530.68 "/>
  <polygon fill="gray" points="630.53,530.68 617.89,525.41 621.05,530.68 617.89,535.95 "/>
  <g>
   <path fill="black" d="M308.78 514.03l61.03 0 -61.03 0zm0 0l0 0 0 0z"/>
   <path id="1" fill="none" stroke="gray" stroke-width="1.25" stroke-miterlimit="22.9256" d="M308.78 514.03l61.03 0m-61.03 0l0 0 0 0z"/>
  </g>
  <polygon fill="gray" points="378.24,514.03 365.6,508.77 368.76,514.03 365.6,519.3 "/>
 </g>
</svg>
