<?xml version="1.0" encoding="UTF-8"?>
<!DOCTYPE svg PUBLIC "-//W3C//DTD SVG 1.1//EN" "http://www.w3.org/Graphics/SVG/1.1/DTD/svg11.dtd">
<!-- Creator: CorelDRAW 2017 -->
<svg xmlns="http://www.w3.org/2000/svg" xml:space="preserve" width="400px" height="400px" version="1.1" shape-rendering="geometricPrecision" text-rendering="geometricPrecision" image-rendering="optimizeQuality" fill-rule="evenodd" clip-rule="evenodd"
viewBox="0 0 425.23 425.23"
 xmlns:xlink="http://www.w3.org/1999/xlink">
 <g id="Layer_x0020_1">
  <metadata id="CorelCorpID_0Corel-Layer"/>
  <rect fill="#FEFEFE" width="425.23" height="425.23"/>
  <g id="_1450075944912">
   <rect fill="#EB5F5F" stroke="#E1E1E1" stroke-width="0.57" stroke-miterlimit="22.9256" x="59.42" y="59.43" width="306.38" height="231.6"/>
   <path fill="#00000D" d="M276.41 174.99c26.98,-3.97 49.33,16.81 52.39,40.21 3.63,27.73 -16.47,49.48 -40.34,52.76 -27.46,3.77 -49.72,-16.63 -52.77,-40.26 -3.67,-28.41 16.49,-49.15 40.72,-52.71l0 0zm-136.52 -0.12c26.91,-3.19 49.02,17.34 51.64,41.21 3.02,27.54 -17.1,49.15 -41.33,51.99 -27.35,3.21 -49.39,-17.53 -51.98,-41.19 -3.05,-27.9 17.13,-49.1 41.67,-52.01l0 0 0 0zm-34.56 -0.52c1.56,-10.24 4.57,-21.79 6.78,-32.07 4.21,-19.59 5.01,-50.44 30.95,-47.09 4.11,0.53 12,4.78 15.57,3.93 3.82,-0.91 6.93,-10.18 3.84,-12.96 -5.56,-5 -40.49,-13.52 -54.25,12.92 -5.61,10.76 -11.53,47.73 -14.68,62.76 -3.9,18.58 -12.19,48.49 -9.6,67.68 6.15,45.43 56.8,67.24 93.34,43.99 14.97,-9.52 26.46,-24.35 28.66,-48.44l15.21 0c2.91,31.82 26.32,57.06 59.52,57.79 33.26,0.72 59.58,-24.38 62.69,-55.01 2.06,-20.39 -12.1,-76.98 -16.92,-100.22 -3.84,-18.5 -4.9,-32.03 -18.3,-40.54 -21.61,-13.72 -43.61,-1.01 -44.38,0.28 -1.15,3.94 1.1,9.12 3.51,11.85 5.5,2.75 34.17,-19.32 42.38,18.44 3.95,18.18 9.26,38.65 12.11,56.66 -3.63,-1.8 -7.37,-5.28 -12.45,-7.82 -16.23,-8.13 -34.32,-8.45 -50.7,-1.73 -17.53,7.19 -32.83,23.87 -36.73,45.84l-16.75 0c-3.87,-22.03 -19.02,-38.61 -36.64,-45.84 -10.58,-4.34 -23.07,-6.09 -35.34,-3.59 -16.15,3.29 -19.65,8.92 -27.82,13.17l0 0 0 0z"/>
   <circle fill="#4D42B3" stroke="#2B2A29" stroke-width="1.14" stroke-miterlimit="22.9256" cx="126.32" cy="240.46" r="15.2"/>
   <circle fill="#4D42B3" stroke="#2B2A29" stroke-width="1.14" stroke-miterlimit="22.9256" cx="265.78" cy="240.46" r="15.2"/>
   <rect fill="#2B2A29" x="59.42" y="290.33" width="306.38" height="75.48"/>
   <path fill="#EB5F5F" fill-rule="nonzero" d="M340.54 350.25l-13.08 0 0 -18.79c0,-1.46 -0.14,-2.47 -0.44,-3.03 -0.3,-0.56 -0.84,-0.85 -1.62,-0.85 -1.44,0 -2.16,1.3 -2.16,3.91l0 18.76 -13.08 0 0 -18.79c0,-1.46 -0.16,-2.47 -0.48,-3.03 -0.31,-0.56 -0.86,-0.85 -1.64,-0.85 -1.45,0 -2.17,1.3 -2.17,3.91l0 18.76 -13.09 0 0 -21.45c0,-3.91 1.33,-7.23 3.96,-9.97 2.63,-2.75 5.83,-4.12 9.58,-4.12 3.86,0 7.34,1.64 10.41,4.91 3.42,-3.27 6.83,-4.91 10.25,-4.91 4.35,0 7.83,1.59 10.46,4.76 2.07,2.46 3.1,6.06 3.1,10.81l0 19.97 0 0zm-71.17 -35.54c4.95,0 9.18,1.78 12.7,5.33 3.54,3.55 5.3,7.81 5.3,12.76 0,5.03 -1.78,9.32 -5.36,12.86 -3.58,3.54 -7.9,5.3 -12.95,5.3 -5.06,0 -9.39,-1.77 -12.98,-5.32 -3.58,-3.56 -5.38,-7.83 -5.38,-12.84 0,-5.1 1.8,-9.39 5.38,-12.87 3.59,-3.48 8.02,-5.22 13.29,-5.22l0 0zm-7.13 18.4c-1.41,0 -2.59,0.52 -3.57,1.53 -0.97,1.01 -1.46,2.25 -1.46,3.73 0,1.44 0.49,2.68 1.47,3.72 0.99,1.02 2.17,1.53 3.56,1.53 1.39,0 2.58,-0.51 3.57,-1.53 0.99,-1.04 1.48,-2.28 1.48,-3.72 0,-1.48 -0.49,-2.72 -1.47,-3.73 -0.97,-1.01 -2.17,-1.53 -3.58,-1.53l0 0zm-32.81 -18.4c4.94,0 9.17,1.78 12.7,5.33 3.54,3.55 5.3,7.81 5.3,12.76 0,5.03 -1.78,9.32 -5.36,12.86 -3.58,3.54 -7.9,5.3 -12.95,5.3 -5.06,0 -9.39,-1.77 -12.98,-5.32 -3.58,-3.56 -5.38,-7.83 -5.38,-12.84 0,-5.1 1.8,-9.39 5.38,-12.87 3.59,-3.48 8.02,-5.22 13.29,-5.22l0 0zm-7.13 18.4c-1.41,0 -2.59,0.52 -3.57,1.53 -0.97,1.01 -1.46,2.25 -1.46,3.73 0,1.44 0.49,2.68 1.47,3.72 0.99,1.02 2.17,1.53 3.56,1.53 1.39,0 2.58,-0.51 3.57,-1.53 0.99,-1.04 1.48,-2.28 1.48,-3.72 0,-1.48 -0.49,-2.72 -1.47,-3.73 -0.98,-1.01 -2.17,-1.53 -3.58,-1.53l0 0zm-48.66 -17.68l32.92 0 -10.67 21.09 12.28 0 0 13.73 -33.54 0 10.62 -21.24 -11.61 0c-0.9,-0.5 -1.71,-0.71 -2.45,-0.71 -2.36,0 -3.54,1.81 -3.54,5.43l0 16.52 -13.08 0 0 -19.03c0,-5.03 1.37,-9.03 4.12,-12.03 2.74,-2.99 6.41,-4.48 10.98,-4.48 1.03,0 2.46,0.31 3.97,0.72l0 0 0 0zm-33.2 -15.51c1.78,0 3.31,0.61 4.6,1.87 1.3,1.24 1.95,2.71 1.95,4.42 0,1.81 -0.61,3.31 -1.84,4.47 -1.23,1.16 -2.79,1.75 -4.7,1.75 -1.91,0 -3.48,-0.59 -4.71,-1.75 -1.23,-1.16 -1.84,-2.66 -1.84,-4.47 0,-1.71 0.65,-3.18 1.95,-4.42 1.29,-1.26 2.82,-1.87 4.6,-1.87l-0.01 0zm6.47 15.51l0 34.82 -13.08 0 0 -34.82 13.08 0zm-28.74 28.07l1.36 5.46c-4.37,1.48 -9.08,2.22 -14.13,2.22 -8.71,0 -15.39,-2.61 -20.08,-7.82 -4.05,-4.52 -6.07,-10.01 -6.07,-16.5 0,-7.14 2.39,-13.12 7.18,-17.94 4.79,-4.81 10.74,-7.22 17.83,-7.22 6.66,0 12.15,1.98 16.5,5.95 4.35,3.97 6.53,8.98 6.53,15.02 0,4.59 -1.38,8.4 -4.15,11.44 -2.77,3.04 -6.25,4.55 -10.43,4.55 -2.24,0 -4.02,-0.41 -5.37,-1.23 -1.33,-0.84 -2,-1.95 -2,-3.35 0,-0.65 0.13,-1.49 0.38,-2.52l1.34 -5.07c0.09,-0.4 0.14,-0.85 0.14,-1.36 0,-1.9 -0.92,-2.84 -2.75,-2.84 -1.15,0 -2.13,0.44 -2.98,1.31 -0.85,0.89 -1.28,1.89 -1.28,3.03 0,1.49 0.72,2.24 2.14,2.24 0.68,0 1.32,-0.12 1.95,-0.35l-3.14 8.67c-0.74,0.13 -1.36,0.19 -1.85,0.19 -2.54,0 -4.56,-0.75 -6.07,-2.25 -1.5,-1.51 -2.25,-3.54 -2.25,-6.11 0,-4.17 1.53,-7.8 4.57,-10.89 3.03,-3.08 6.62,-4.63 10.74,-4.63 2.96,0 5.34,0.76 7.15,2.29 1.8,1.53 2.71,3.54 2.71,6 0,1.03 -0.16,2.16 -0.46,3.4l-1.06 4.23 -0.2 0.74c-0.19,0.68 -0.28,1.26 -0.28,1.75 0,1.12 0.51,1.68 1.52,1.68 1.59,0 3.03,-1.13 4.33,-3.39 1.3,-2.26 1.94,-4.76 1.94,-7.51 0,-4.64 -1.61,-8.4 -4.84,-11.29 -3.22,-2.89 -7.42,-4.34 -12.61,-4.34 -5.58,0 -10.2,1.89 -13.84,5.64 -3.64,3.77 -5.46,8.52 -5.46,14.26 0,4.96 1.42,9.15 4.26,12.57 3.47,4.19 8.82,6.28 16.06,6.28 4.12,0 8.35,-0.77 12.68,-2.31l-0.01 0z"/>
  </g>
 </g>
</svg>
